<?xml version="1.0" encoding="UTF-8"?>
<svg xmlns="http://www.w3.org/2000/svg" xmlns:xlink="http://www.w3.org/1999/xlink" width="60px" height="70px" viewBox="0 0 60 70" version="1.1">
<g id="surface1">
<rect x="0" y="0" width="60" height="70" style="fill:rgb(100%,100%,100%);fill-opacity:1;stroke:none;"/>
<path style=" stroke:none;fill-rule:nonzero;fill:rgb(84.313725%,3.529412%,14.901961%);fill-opacity:1;" d="M 6.417969 36.457031 L 30.027344 25.882812 L 30.027344 6.363281 L 6.417969 23.164062 Z M 8.945312 54.617188 L 51.082031 54.617188 L 51.082031 57.457031 L 8.945312 57.457031 Z M 8.945312 54.617188 "/>
<path style=" stroke:none;fill-rule:nonzero;fill:rgb(58.823529%,5.098039%,20.392157%);fill-opacity:1;" d="M 53.609375 36.457031 L 30 25.882812 L 30 6.363281 L 53.609375 23.164062 Z M 53.609375 36.457031 "/>
<path style=" stroke:none;fill-rule:nonzero;fill:rgb(9.803922%,18.039216%,44.313725%);fill-opacity:1;" d="M 51.082031 38.9375 C 51.078125 39.242188 50.957031 39.53125 50.742188 39.746094 C 50.523438 39.960938 50.230469 40.082031 49.925781 40.082031 C 49.765625 40.089844 49.609375 40.066406 49.460938 40.011719 C 49.3125 39.957031 49.175781 39.871094 49.058594 39.765625 C 48.945312 39.65625 48.855469 39.527344 48.792969 39.382812 C 48.730469 39.238281 48.695312 39.082031 48.695312 38.925781 C 48.695312 38.769531 48.730469 38.613281 48.792969 38.46875 C 48.855469 38.324219 48.945312 38.191406 49.058594 38.085938 C 49.175781 37.976562 49.3125 37.894531 49.460938 37.839844 C 49.609375 37.785156 49.765625 37.761719 49.925781 37.769531 C 50.230469 37.78125 50.519531 37.910156 50.734375 38.128906 C 50.949219 38.34375 51.074219 38.636719 51.082031 38.9375 Z M 49.925781 38.269531 C 50.050781 38.261719 50.171875 38.285156 50.285156 38.339844 C 50.332031 38.367188 50.375 38.40625 50.40625 38.449219 C 50.433594 38.496094 50.453125 38.550781 50.453125 38.605469 C 50.453125 38.769531 50.382812 38.84375 50.1875 38.921875 C 50.285156 38.972656 50.335938 38.996094 50.359375 39.039062 C 50.382812 39.085938 50.382812 39.113281 50.40625 39.160156 C 50.40625 39.210938 50.414062 39.257812 50.429688 39.304688 C 50.433594 39.402344 50.453125 39.5 50.480469 39.589844 L 50.238281 39.589844 C 50.210938 39.488281 50.195312 39.378906 50.1875 39.273438 C 50.167969 39.035156 50.144531 38.988281 49.902344 38.988281 L 49.683594 38.988281 L 49.683594 39.585938 L 49.445312 39.585938 L 49.445312 38.25 L 49.941406 38.25 Z M 49.878906 38.84375 C 50.09375 38.84375 50.199219 38.769531 50.199219 38.648438 C 50.199219 38.617188 50.191406 38.582031 50.175781 38.554688 C 50.160156 38.523438 50.132812 38.5 50.105469 38.484375 C 50.035156 38.460938 49.960938 38.453125 49.886719 38.460938 L 49.671875 38.460938 L 49.671875 38.84375 Z M 49.15625 38.316406 C 49.007812 38.496094 48.921875 38.71875 48.914062 38.953125 C 48.929688 39.203125 49.039062 39.4375 49.222656 39.609375 C 49.40625 39.78125 49.648438 39.875 49.902344 39.875 C 50.152344 39.875 50.394531 39.78125 50.578125 39.609375 C 50.761719 39.4375 50.875 39.203125 50.886719 38.953125 C 50.882812 38.699219 50.78125 38.453125 50.601562 38.273438 C 50.425781 38.089844 50.183594 37.980469 49.925781 37.972656 C 49.777344 37.96875 49.632812 38 49.5 38.0625 C 49.363281 38.121094 49.246094 38.214844 49.15625 38.328125 Z M 49.804688 61.773438 C 50.1875 61.773438 50.382812 61.585938 50.382812 61.296875 C 50.382812 60.964844 50.144531 60.796875 49.78125 60.796875 L 49.011719 60.796875 L 49.011719 61.773438 Z M 48.261719 60.105469 L 49.867188 60.105469 C 50.050781 60.09375 50.238281 60.117188 50.410156 60.179688 C 50.585938 60.242188 50.742188 60.339844 50.878906 60.464844 C 50.976562 60.570312 51.054688 60.691406 51.101562 60.828125 C 51.152344 60.964844 51.171875 61.105469 51.164062 61.25 C 51.171875 61.484375 51.101562 61.714844 50.96875 61.910156 C 50.835938 62.101562 50.640625 62.246094 50.417969 62.324219 L 51.261719 63.539062 L 50.359375 63.539062 L 49.621094 62.441406 L 49.011719 62.441406 L 49.011719 63.539062 L 48.242188 63.539062 L 48.242188 60.105469 Z M 43.667969 60.105469 L 46.292969 60.105469 L 46.292969 60.773438 L 44.414062 60.773438 L 44.414062 61.464844 L 46.050781 61.464844 L 46.050781 62.132812 L 44.414062 62.132812 L 44.414062 62.851562 L 46.316406 62.851562 L 46.316406 63.523438 L 43.667969 63.523438 Z M 40.757812 60.105469 L 41.527344 60.105469 L 41.527344 63.539062 L 40.757812 63.539062 Z M 36.351562 60.105469 L 37.125 60.105469 L 37.125 62.851562 L 38.855469 62.851562 L 38.855469 63.539062 L 36.351562 63.539062 Z M 33.441406 60.105469 L 34.21875 60.105469 L 34.21875 63.539062 L 33.445312 63.539062 Z M 30.230469 62.871094 C 30.550781 62.871094 30.785156 62.75 30.785156 62.492188 C 30.785156 62.230469 30.621094 62.109375 30.207031 62.109375 L 29.304688 62.109375 L 29.304688 62.886719 Z M 30.015625 61.488281 C 30.351562 61.488281 30.566406 61.371094 30.566406 61.132812 C 30.566406 60.894531 30.402344 60.773438 30.0625 60.773438 L 29.304688 60.773438 L 29.304688 61.488281 Z M 28.574219 60.105469 L 30.175781 60.105469 C 30.511719 60.089844 30.839844 60.203125 31.089844 60.421875 C 31.171875 60.5 31.230469 60.589844 31.273438 60.691406 C 31.316406 60.792969 31.335938 60.902344 31.332031 61.011719 C 31.332031 61.164062 31.289062 61.316406 31.207031 61.445312 C 31.128906 61.578125 31.011719 61.683594 30.871094 61.753906 C 31.0625 61.796875 31.226562 61.902344 31.34375 62.054688 C 31.460938 62.207031 31.523438 62.394531 31.515625 62.585938 C 31.515625 63.207031 30.988281 63.519531 30.230469 63.519531 L 28.554688 63.519531 L 28.554688 60.105469 Z M 25.789062 61.824219 C 25.796875 61.679688 25.773438 61.539062 25.722656 61.40625 C 25.671875 61.273438 25.597656 61.152344 25.496094 61.050781 C 25.398438 60.949219 25.28125 60.867188 25.148438 60.808594 C 25.015625 60.753906 24.875 60.726562 24.730469 60.726562 C 24.589844 60.722656 24.453125 60.75 24.324219 60.804688 C 24.191406 60.855469 24.074219 60.9375 23.976562 61.039062 C 23.882812 61.136719 23.804688 61.257812 23.757812 61.386719 C 23.707031 61.519531 23.6875 61.660156 23.695312 61.796875 C 23.6875 61.9375 23.710938 62.082031 23.757812 62.214844 C 23.808594 62.347656 23.886719 62.46875 23.984375 62.570312 C 24.085938 62.675781 24.203125 62.753906 24.335938 62.808594 C 24.46875 62.863281 24.609375 62.890625 24.753906 62.886719 C 24.894531 62.894531 25.035156 62.867188 25.164062 62.816406 C 25.296875 62.761719 25.414062 62.683594 25.511719 62.582031 C 25.609375 62.484375 25.683594 62.363281 25.730469 62.234375 C 25.78125 62.101562 25.800781 61.960938 25.789062 61.824219 Z M 22.878906 61.824219 C 22.878906 61.582031 22.925781 61.347656 23.019531 61.125 C 23.113281 60.90625 23.25 60.703125 23.425781 60.539062 C 23.597656 60.371094 23.800781 60.238281 24.027344 60.152344 C 24.25 60.0625 24.492188 60.019531 24.730469 60.023438 C 24.972656 60.015625 25.210938 60.054688 25.4375 60.136719 C 25.664062 60.222656 25.867188 60.351562 26.042969 60.515625 C 26.214844 60.679688 26.355469 60.878906 26.449219 61.097656 C 26.542969 61.316406 26.589844 61.554688 26.589844 61.792969 C 26.589844 62.03125 26.542969 62.265625 26.449219 62.488281 C 26.355469 62.707031 26.214844 62.90625 26.042969 63.070312 C 25.867188 63.234375 25.664062 63.363281 25.4375 63.449219 C 25.210938 63.53125 24.972656 63.570312 24.730469 63.558594 C 24.492188 63.574219 24.253906 63.539062 24.027344 63.457031 C 23.800781 63.378906 23.597656 63.25 23.421875 63.085938 C 23.25 62.925781 23.109375 62.726562 23.015625 62.507812 C 22.921875 62.289062 22.875 62.054688 22.878906 61.816406 Z M 17.421875 60.097656 L 18.242188 60.097656 L 19.15625 61.550781 L 20.101562 60.105469 L 20.902344 60.105469 L 20.902344 63.539062 L 20.183594 63.539062 L 20.183594 61.296875 L 19.195312 62.777344 L 19.171875 62.777344 L 18.207031 61.320312 L 18.207031 63.546875 L 17.460938 63.546875 L 17.460938 60.109375 Z M 11.855469 60.109375 L 12.675781 60.109375 L 13.589844 61.566406 L 14.503906 60.109375 L 15.320312 60.109375 L 15.320312 63.546875 L 14.550781 63.546875 L 14.550781 61.296875 L 13.566406 62.777344 L 13.539062 62.777344 L 12.578125 61.320312 L 12.578125 63.546875 L 11.832031 63.546875 L 11.832031 60.109375 Z M 41.597656 46.046875 L 43.5 41.46875 L 45.402344 46.046875 Z M 44.96875 37.792969 L 42.082031 37.792969 L 37.429688 48.648438 L 36.421875 51.035156 L 35.984375 52.039062 L 38.003906 52.039062 C 38.347656 52.039062 38.679688 51.9375 38.964844 51.75 C 39.25 51.566406 39.476562 51.300781 39.609375 50.988281 L 40.476562 48.886719 L 46.507812 48.886719 L 47.792969 52.070312 L 51.066406 52.070312 Z M 31.171875 42.683594 C 31.171875 43.878906 30.28125 44.6875 28.742188 44.6875 L 25.554688 44.6875 L 25.554688 40.617188 L 28.683594 40.617188 C 30.222656 40.617188 31.160156 41.304688 31.160156 42.644531 L 31.160156 42.691406 Z M 33.738281 50.464844 L 32.507812 48.699219 L 31.304688 46.933594 C 33.136719 46.261719 34.386719 44.808594 34.386719 42.519531 L 34.386719 42.46875 C 34.386719 39.535156 32.363281 37.769531 28.972656 37.769531 L 22.394531 37.769531 L 22.394531 50.722656 C 22.394531 51.679688 23.191406 51.996094 24.152344 51.996094 L 25.574219 51.996094 L 25.574219 47.457031 L 28.050781 47.457031 L 30.617188 51.226562 L 30.664062 51.296875 C 30.824219 51.519531 31.03125 51.699219 31.273438 51.824219 C 31.515625 51.949219 31.785156 52.011719 32.058594 52.011719 L 34.824219 52.011719 L 33.730469 50.480469 Z M 8.945312 52.027344 L 19.855469 52.027344 L 19.855469 49.238281 L 12.082031 49.238281 L 12.082031 46.257812 L 18.835938 46.257812 L 18.835938 43.449219 L 12.082031 43.449219 L 12.082031 40.558594 L 19.75 40.558594 L 19.75 37.769531 L 8.921875 37.769531 L 8.921875 52.011719 Z M 8.945312 60.105469 L 9.714844 60.105469 L 9.714844 63.539062 L 8.945312 63.539062 Z M 8.945312 60.105469 "/>
</g>
</svg>
