<?xml version="1.0" encoding="UTF-8"?> <!-- Generator: Adobe Illustrator 24.2.1, SVG Export Plug-In . SVG Version: 6.00 Build 0) --> <svg xmlns="http://www.w3.org/2000/svg" xmlns:xlink="http://www.w3.org/1999/xlink" version="1.1" id="Layer_1" x="0px" y="0px" viewBox="0 0 187.7 156.2" style="enable-background:new 0 0 187.7 156.2;" xml:space="preserve"> <style type="text/css"> .st0{fill:#D0D6D9;} </style> <g> <g> <g> <path class="st0" d="M114,74.9H99.4l-5.6,26.8h13.8c6.4,0,9.4-1.3,12.3-3.4c3.7-2.7,7.1-7.4,7.1-13.1C127,78,123.8,74.9,114,74.9 z"></path> <path class="st0" d="M102.1,37c-35.8,0-64.7,29-64.7,64.7c0,19.6,8.7,37.2,22.5,49.1l20.4-95.9H122c17.7,0,30.5,8.4,30.5,25.3 c0,11.5-7.2,24.6-24.6,29.7c10.8,2.4,17.5,11.8,17.5,22.8c0,6.4-2.3,15.7-7.9,23.3c17.7-11.6,29.4-31.5,29.4-54.2 C166.8,66,137.8,37,102.1,37z"></path> <path class="st0" d="M83,152.8h15.3c4.9,0,9.1-1.4,12.1-3.4c5.2-3.5,8.9-10.8,8.9-17.4c0-8.3-4.5-11-15-11H89.7L83,152.8z"></path> </g> <g> <path class="st0" d="M9.4,140.1l1.5,0.3c-0.2,1.6-0.2,2.6,0.4,3.8c0.8,1.7,2.3,2.7,4.3,2.5c1.3-0.1,2.6-0.5,4-1.2 c1.9-0.9,3.3-2.1,4-3.2c0.6-1.1,0.5-2.9-0.1-4.3c-0.4-0.9-1-1.6-1.7-2.1l-4.5,2.2l1.4,3l-1.3,1l-2.4-5l6.9-3.3 c1.2,0.7,2.4,2.1,3.1,3.6c0.9,1.9,1,3.7,0.3,5.4c-0.8,1.9-2.3,3.4-4.9,4.6c-2.8,1.4-5.2,1.6-7.3,0.7c-1.5-0.6-2.5-1.7-3.3-3.2 C9.2,143.3,9,141.7,9.4,140.1z"></path> <path class="st0" d="M5.4,133.4l-1-3.7c-0.6-2.2-0.5-3.3-0.1-4.3c0.4-0.9,1.2-2,2.9-2.5c2.6-0.7,4.8,0.5,5.5,3l0.1,0.2 c0.4-0.9,1-1.6,1.3-2.1c0.7-0.9,4.3-5.1,4.3-5.1l0.7,2.4c-0.9,0.8-2.9,2.9-5,5.8c-0.6,0.8-0.7,1.3-0.5,2l7.2-2l0.5,1.9L5.4,133.4 z M6.5,131.1l5.9-1.7l-0.5-1.7c-0.4-1.4-0.9-2.2-1.6-2.6c-0.6-0.4-1.6-0.4-2.6-0.1c-1,0.3-1.8,1.2-2,2.2c-0.1,0.6,0,1.2,0.2,2.1 L6.5,131.1z"></path> <path class="st0" d="M0.7,112.1c-0.3-2.8,1.1-4.5,2.1-5.4c1.4-1.2,3.3-1.8,5.9-2.1c3.1-0.3,5.2,0.2,6.9,1.7c1.2,1.1,1.8,2.3,2,4 c0.2,2-0.5,3.6-1.6,4.9c-1.4,1.4-3.5,2.3-6.3,2.6C4.5,118.3,1.1,116.1,0.7,112.1z M2.3,111.9c0.2,1.5,1,2.8,2.3,3.3 c1.1,0.5,2.6,0.6,4.6,0.4c2.5-0.2,4.6-0.9,5.6-1.6c1-0.7,1.5-2.3,1.4-3.7c-0.1-1.3-0.7-2.3-1.7-2.9c-1.1-0.7-2.5-1-5.1-0.7 c-2.4,0.2-4,0.6-5.1,1.3C3,108.7,2.1,110,2.3,111.9z"></path> <path class="st0" d="M0.3,98.8l0.2-1.9l11,0.9c0.8,0.1,1.9,0.1,2.4-0.1c0.7-0.3,1.7-1.1,1.9-3.1c0.1-1.4-0.2-2.4-0.8-3 c-0.7-0.6-1.4-0.7-2.5-0.8l-11.4-1L1.3,88l11.7,1c2,0.2,2.9,0.5,3.6,1.6c0.8,1.1,1.1,2.4,0.9,4.4c-0.2,2.5-1.1,3.9-2.8,4.7 c-0.8,0.4-1.9,0.3-2.6,0.3L0.3,98.8z"></path> <path class="st0" d="M2.5,81l1.1-4.4c0.4-1.7,0.9-2.6,1.6-3.3c1.2-1.1,2.7-1.5,4.3-1.1c1.6,0.4,2.7,1.1,3.4,2.4 c0.7,1.3,0.7,2.5,0.3,4.2l-0.7,2.8l6.3,1.6l-0.5,1.9L2.5,81z M4.6,79.6l6.4,1.6l0.7-2.7c0.3-1.3,0.2-2-0.2-2.7 c-0.5-0.7-1.1-1.2-2-1.4c-1.2-0.3-2-0.2-2.8,0.3c-0.7,0.5-1.2,1.3-1.6,2.8L4.6,79.6z"></path> <path class="st0" d="M6.9,66.1l3.5-8.3l1.4,0.9l-2.6,6.2l5,2.1l2.2-5.2l1.6,0.7l-2.2,5.2l5.5,2.3l2.8-6.7l1.6,0.7L22,72.5 L6.9,66.1z"></path> <path class="st0" d="M19.8,42c1.2-1.6,2.1-2.3,3.4-2.6c1.2-0.3,2.2-0.1,3.2,0.6c0.9,0.7,1.5,1.5,1.6,2.5c0.1,0.7,0.1,1-0.2,1.7 c1.7-1.3,3.6-1.5,5.3-0.2c1.9,1.3,2.8,3.8,1.2,6.2c-0.3,0.4-0.7,1-1.2,1.8l-3.1,4.2l-13.5-9.8L19.8,42z M23.8,47.8l1.2-1.6 c0.5-0.6,0.6-1,0.7-1.3c0.1-0.5-0.3-1.3-0.9-1.7c-0.6-0.4-1.4-0.6-1.9-0.2c-0.3,0.2-0.6,0.4-1,1l-1.1,1.6L23.8,47.8z M29.7,52 l1.3-1.8c0.4-0.6,0.6-1,0.6-1.5c0-0.6-0.4-1.4-1.1-1.8c-0.8-0.6-1.8-0.7-2.4-0.2c-0.3,0.3-0.5,0.5-0.9,1L26,49.3L29.7,52z"></path> <path class="st0" d="M32.1,28l15.4,8.3l-2.6,2.5l-3.6-2l-3.5,3.4l1.9,3.6l-2.5,2.4l-7.7-15.8L32.1,28z M38.8,35.3 c0,0-1.6-0.9-3-1.8c-0.7-0.4-2.5-1.6-2.5-1.6s1,1.7,1.7,2.9c0.6,1.1,1,1.8,1.5,2.8L38.8,35.3z"></path> <path class="st0" d="M48.5,19.2c-1,0-1.9,0.2-2.7,0.8c-0.9,0.6-1.5,1.7-1.5,2.8c0,1.2,0.6,2.5,1.7,4c1.3,1.9,2.2,2.8,3.1,3.2 c1.3,0.6,2.5,0.5,3.7-0.3c0.8-0.6,1.4-1.3,1.7-2.5L57,28c-0.5,1.6-1.3,2.8-2.9,3.9c-1.9,1.3-3.8,1.7-5.8,1.3 c-2-0.5-3.7-1.7-5.1-3.7c-1.2-1.7-1.9-3.3-2.1-4.9c-0.3-2.7,0.8-5.3,3-6.8c1.4-1,3-1.5,4.2-1.4L48.5,19.2z"></path> <path class="st0" d="M70,23.1c0.7,0.1,1.5,0.1,2.2-0.3c0.6-0.3,1.3-0.7,1.3-0.7l0.1,2.3c0,0-0.3,0.5-1.2,0.9 c-1.2,0.6-2.5,0.4-3.3,0.3c-0.9-0.1-2.4-0.2-3.8-0.1c-2.2,1.1-4,1.2-5.9,0.2c-1.8-0.9-3.3-2.5-4.4-4.7c-1.5-3.2-1.6-6.4,0-8.6 c0.7-0.9,1.6-1.7,2.8-2.2c4-1.9,7.9-0.2,10.1,4.5c1.6,3.3,1.6,6.3,0.3,8.3C68.8,23,69.6,23.1,70,23.1z M57.3,15 c-0.1,1.2,0.3,2.7,1.2,4.5c1.2,2.6,2.4,4,3.7,4.2c0.6,0.1,1.3,0,2-0.3c2.1-1,2.2-3,0.4-6.8c-0.7-1.5-1.4-2.6-2.1-3.3 c-0.6-0.6-1.9-1.4-3.5-0.6C57.9,13,57.3,14,57.3,15z"></path> <path class="st0" d="M73.1,4.5l2.8,10.6c0.3,1,0.5,1.6,0.8,1.8c0.6,0.6,1.4,0.8,2.5,0.5c1.4-0.4,2.1-1.3,2-2.5 c0-0.4-0.1-0.6-0.3-1.4L78.1,3.2l3.3-0.9l2.9,10.8c0.4,1.5,0.5,1.8,0.4,2.6c-0.1,1.4-1.2,3.6-4.7,4.5c-2.5,0.7-4.5,0.4-5.7-0.8 c-0.7-0.7-1.1-1.3-1.5-2.9l-3-11.2L73.1,4.5z"></path> <path class="st0" d="M97.6,0.5l-0.2,2.8l-5.7,0.5L92,7.6l4.7-0.4L97,9.9l-4.7,0.4l0.4,4.4l6.3-0.6l0.3,2.9l-9.7,0.9L88.1,1.3 L97.6,0.5z"></path> <path class="st0" d="M105.2,0.6l1.8,4.7c0.4,0.9,0.5,1.5,0.7,2.2c0.2-0.5,0.6-1.3,1-2l2.5-4.4l3.9,0.3l-6,9.4l-0.5,6.8l-3.5-0.2 l0.5-6.8l-4.5-10.1L105.2,0.6z"></path> <path class="st0" d="M125.2,3.4c2.9,0.7,4.3,3,3.7,5.9c-0.6,2.4-2.6,4.1-4.7,3.6c0.3,0.3,0.4,0.5,0.5,0.8 c0.7,1.4,2.4,7.2,2.4,7.2l-3.9-0.9c-0.4-1.2-0.5-1.7-0.9-3c-0.9-3.3-1.2-4.2-1.8-4.6c-0.1-0.1-0.3-0.2-0.5-0.3l-1.6,6.8l-3.2-0.7 L119.1,2L125.2,3.4z M120.7,9.7l1.1,0.3c1.4,0.3,2,0.3,2.6,0c0.5-0.3,0.9-0.8,1-1.5c0.2-1,0-1.8-0.7-2.3c-0.3-0.2-1-0.5-1.8-0.7 l-1.2-0.3L120.7,9.7z"></path> <path class="st0" d="M138.7,7.6l-5.8,15.6l-3.3-1.2l5.8-15.6L138.7,7.6z"></path> <path class="st0" d="M151,17.5c-0.9-1.5-1.7-2.4-2.8-2.9c-1.2-0.6-2.4-0.4-3,0.6c-0.4,0.8-0.2,1.4,0.8,2.3l1.5,1.4 c2.1,1.9,2.6,4.2,1.4,6.4c-1.6,3-5,3.7-8.7,1.7c-1.7-0.9-3.3-2.4-4.3-4l2.3-1.7c1,1.5,1.9,2.5,3.4,3.3c1.7,0.9,3,0.7,3.6-0.6 c0.5-1,0.2-1.9-0.9-2.9l-1.4-1.3c-1.2-1.2-1.8-2.2-1.9-3.4c-0.1-0.9,0.1-1.7,0.6-2.6c1.4-2.7,4.6-3.4,7.7-1.7 c1.8,1,3.3,2.5,4.1,4.1L151,17.5z"></path> <path class="st0" d="M164.2,26.8c-0.6-1.6-1.3-2.6-2.3-3.4c-1.1-0.8-2.3-0.8-3,0.1c-0.5,0.7-0.4,1.3,0.4,2.5l1.3,1.7 c1.7,2.2,1.8,4.5,0.3,6.5c-2.1,2.7-5.6,2.8-8.9,0.3c-1.5-1.2-2.8-2.9-3.6-4.7l2.6-1.3c0.7,1.6,1.5,2.8,2.8,3.8 c1.5,1.2,2.8,1.2,3.7,0c0.7-0.9,0.5-1.8-0.4-3l-1.2-1.5c-1-1.4-1.5-2.5-1.3-3.7c0.1-0.9,0.4-1.7,1-2.4c1.8-2.4,5.1-2.6,7.9-0.5 c1.6,1.2,2.9,3,3.4,4.7L164.2,26.8z"></path> <path class="st0" d="M178.5,35.9l-2.3,1.6l-3.9-4.1l-2.8,2.6l3.3,3.5l-2,1.9l-3.2-3.4l-3.2,3.1l4.3,4.6l-2.1,2l-6.7-7.1L172,29 L178.5,35.9z"></path> <path class="st0" d="M184.5,50.2c-0.1-1.8-0.4-2.9-1.1-3.9c-0.8-1.1-2-1.5-2.9-0.8c-0.7,0.5-0.8,1.1-0.4,2.5l0.7,2 c0.9,2.7,0.3,4.9-1.7,6.3c-2.8,1.9-6.2,0.9-8.5-2.5c-1.1-1.6-1.8-3.6-1.9-5.5l2.9-0.4c0.2,1.7,0.5,3.2,1.5,4.5 c1.1,1.6,2.3,2,3.5,1.1c0.9-0.6,1.1-1.6,0.6-3l-0.6-1.8c-0.6-1.6-0.6-2.8-0.1-3.9c0.4-0.8,0.9-1.5,1.7-2c2.5-1.7,5.6-0.9,7.6,2 c1.1,1.7,1.8,3.7,1.7,5.5L184.5,50.2z"></path> </g> </g> </g> </svg> 