<svg xmlns="http://www.w3.org/2000/svg" width="79" height="69" viewBox="0 0 79 69" fill="none">
  <path d="M12.4064 1.73372C13.1895 1.70754 14.075 1.78488 14.9271 2.23229C14.5415 0.62114 11.177 1.26132 11.177 1.26132C11.177 1.26132 11.6221 1.7599 12.4064 1.73372ZM16.6029 0.859124C17.023 0.965027 17.4872 1.16731 17.9299 1.45409C18.2703 1.67541 18.5976 1.94552 18.882 2.27037C18.8737 2.21326 18.863 2.15733 18.8511 2.10378C18.4345 0.257023 15.4948 0 15.4948 0C15.4948 0 15.859 0.671116 16.6029 0.859124ZM22.1906 3.19256C22.3275 3.43531 22.4656 3.63759 22.5751 3.83036C22.7441 4.12665 22.8464 4.40271 22.7726 4.7704C22.7726 4.7704 23.4403 3.46505 22.825 2.84391C22.2513 2.26442 21.9371 1.93838 21.9371 1.93838C21.9371 1.93838 21.7598 2.14067 21.8776 2.51669C21.9717 2.77966 22.0811 2.9986 22.1918 3.19256H22.1906ZM25.9849 6.96819C26.5276 7.4156 27.0358 7.39537 27.0358 7.39537C26.1039 6.67904 26.4609 5.48792 26.1812 4.92271C25.9015 4.3575 25.5266 4.29324 25.5266 4.29324C25.5266 4.29324 25.3112 4.75136 25.3219 5.60097C25.3267 6.02339 25.5719 6.62787 25.9849 6.96819ZM9.37864 3.10332C9.64881 3.06643 9.86066 3.01407 9.86066 3.01407C9.85471 3.00931 9.84994 3.00574 9.84399 3.00098C9.8428 3.00098 9.84161 2.99861 9.84042 2.99861C9.5286 2.76538 9.32271 2.5976 9.10967 2.52859C8.88592 2.456 8.65146 2.4917 8.27418 2.67495C8.11708 3.19137 8.85617 3.17471 9.37864 3.10213V3.10332ZM3.0137 35.0837C2.10919 35.5025 1.73191 36.8507 1.73191 36.8507C2.04373 36.8233 2.24368 36.7805 2.38292 36.7186C2.67808 36.5865 2.70426 36.364 2.93515 35.9928C3.1708 35.6144 2.97919 35.9297 3.79325 34.9897C3.79564 34.9873 3.79802 34.9849 3.8004 34.9813C3.8004 34.9813 3.8004 34.9802 3.80159 34.979C3.50286 34.929 3.24102 34.9766 3.01251 35.0825L3.0137 35.0837ZM27.9236 5.55813L27.9772 5.64261C28.0581 5.77112 28.1426 5.90083 28.2295 6.02815C28.2866 6.11144 28.3425 6.19474 28.4032 6.27446C28.458 6.34586 28.5115 6.41249 28.5651 6.47437C28.7246 6.65643 28.8853 6.79922 29.0602 6.91226L29.1233 6.95034C29.6065 7.24187 30.0564 7.27162 30.6324 7.19427C30.4098 7.04196 30.0159 6.75162 29.7493 6.39702L29.7445 6.38988C28.8722 4.9358 27.9593 5.10715 27.6868 5.19996C27.7272 5.26303 27.7808 5.34275 27.826 5.41177C27.8653 5.47126 27.901 5.52481 27.9224 5.55813H27.9236ZM6.31281 24.5826C5.84627 23.99 4.97627 23.5724 4.22885 23.3023C4.08246 23.2535 3.90751 23.2261 3.7278 23.2285C3.38265 23.232 3.0137 23.3475 2.76377 23.6557C2.55431 23.9151 2.1556 24.1173 2.1556 24.1173C2.1556 24.1173 2.50075 24.2863 2.97562 24.2637C3.07559 24.259 3.47905 24.2161 3.76231 24.1876C3.87538 24.1697 4.00272 24.1519 4.15268 24.1352C4.73824 24.0686 5.32022 24.2042 5.7332 24.3434C6.08311 24.4612 6.31281 24.5814 6.31281 24.5814V24.5826ZM3.14581 28.6581C3.01727 28.714 2.87922 28.7973 2.75068 28.8996C2.50432 29.096 2.29485 29.3661 2.26272 29.6767C2.23534 29.9373 2.0473 30.2728 2.0473 30.2728C2.0473 30.2728 2.26629 30.1717 2.59596 29.892C2.66618 29.8325 3.08392 29.4863 3.78611 28.9687C4.4883 28.4499 5.25476 28.1893 5.25476 28.1893C4.63588 28.1262 3.81111 28.3856 3.14462 28.6581H3.14581ZM5.50231 13.6139C5.40948 14.523 4.69182 14.8717 4.03129 14.974C3.89918 15.8557 5.10004 15.557 5.7332 15.8569C5.00007 16.3948 4.70491 16.6851 4.1015 16.5851C5.15836 17.6418 5.65822 17.0088 6.18784 17.8655C5.70345 18.2891 4.7549 18.0142 4.7549 18.0142C4.7549 18.0142 4.52639 18.3534 5.94862 18.965C7.35538 19.5695 7.13282 20.9998 8.64194 21.4971C9.66071 21.8327 10.1153 21.6352 10.1153 21.6352C10.1153 21.6352 9.75949 22.4931 8.48722 22.4931C7.21495 22.4931 6.85195 22.0838 6.00575 22.0838C7.42679 23.7866 6.9543 24.6124 8.90734 24.7885C7.89571 25.8868 6.49133 25.0848 6.49133 25.0848C6.49133 25.0848 6.06645 25.5393 6.5199 26.0426C6.97334 26.546 7.05308 26.8756 7.05308 26.8756C7.05308 26.8756 6.10691 27.2004 5.43329 26.9458C6.04621 27.7585 6.8817 27.724 6.8817 27.724C6.8817 27.724 6.32828 28.0108 5.35712 29.0032C4.38595 29.9944 4.32644 30.4537 4.32644 31.076C5.419 30.2157 6.41397 29.6493 6.41397 29.6493C6.41397 29.6493 4.6942 31.6151 4.97746 33.7129C8.01592 27.9037 10.7902 29.4851 11.1555 27.0933C9.63691 27.6657 8.72644 27.1921 8.26585 26.6257C11.5471 26.3485 11.8113 22.8834 13.5251 22.242C11.4031 22.7513 11.1127 22.0159 11.1127 22.0159C11.0865 21.7899 13.1288 19.9443 15.1318 19.905C13.036 18.9567 12.6587 19.1673 12.6587 19.1673C14.513 17.192 18.8356 16.8624 18.8356 16.8624C18.8356 16.8624 16.6481 15.6891 15.0533 15.7427C16.6481 14.1613 18.9844 14.1232 20.5316 14.1684C22.0788 14.2136 22.7512 13.608 22.7512 13.608C22.7512 13.608 20.9898 13.1165 20.9898 11.6684C23.9509 13.1855 25.5754 12.5358 28.1426 11.2614C30.154 10.2631 31.1894 10.031 31.5464 9.9775C31.1918 10.0108 30.2837 10.0501 29.86 9.6229C29.1852 8.94227 28.99 8.84707 28.99 8.84707C28.99 8.84707 29.2649 9.54675 29.0983 9.82043C28.9329 10.0941 28.9317 10.3 28.9317 10.3C28.9317 10.3 28.1521 9.73119 28.0569 9.19691L27.9617 8.66145C27.9617 8.66145 27.3833 8.48415 27.344 9.27902C27.3035 10.0739 27.1964 10.3499 26.8953 10.5261C26.8953 10.5261 26.6847 9.68835 26.0289 9.58483C25.3731 9.4813 25.3017 8.46273 25.3017 8.46273C25.3017 8.46273 24.5257 8.83398 24.415 9.96798C23.7009 7.20498 22.6429 6.71235 22.1157 5.80206C21.5884 6.07336 22.5572 6.86704 21.9598 7.22402C19.6009 4.56335 19.5568 3.1521 19.5568 3.1521C19.5568 3.1521 18.9915 3.48171 18.9618 4.61333C18.932 5.74614 18.6999 5.97698 18.6999 5.97698C18.6999 5.97698 18.5452 4.7109 17.2539 3.78871C15.9638 2.86652 15.1152 2.69041 15.1152 2.69041C15.1152 2.69041 15.0949 3.33773 15.4353 3.68638C15.7757 4.03503 15.496 4.56335 15.496 4.56335C15.496 4.56335 14.6439 3.63878 12.4052 3.78633C10.1665 3.93388 8.6824 5.09168 8.4051 5.41772C8.80737 6.14714 10.8449 5.46769 10.5831 6.78851C10.5831 6.78851 9.44291 6.23638 7.97069 7.1324C6.40683 8.08433 6.01646 8.23426 5.2869 8.28424C5.2869 8.28424 5.43686 8.88515 6.04859 9.11481C6.66152 9.34327 6.77459 9.34565 6.91146 9.70739C5.84032 10.0703 3.47072 10.933 3.66234 13.6579C4.70967 14.1946 4.84535 13.458 5.50589 13.6127L5.50231 13.6139ZM31.5441 9.97512C31.6357 9.96679 31.6916 9.95846 31.6916 9.95846C31.6916 9.95846 31.6417 9.96084 31.5441 9.97512ZM55.2995 6.74448C55.8946 5.75923 55.7958 4.45745 55.7958 4.45745C55.7958 4.45745 55.6827 4.80134 55.3614 5.07502C55.2138 5.20115 54.7949 5.33918 54.5854 5.5141C53.8737 6.11263 54.3391 7.87729 54.3391 7.87729C54.3391 7.87729 54.6842 7.76067 55.2983 6.74329L55.2995 6.74448ZM52.2968 7.2264C52.7978 6.52435 52.9394 5.67712 52.9394 5.67712C52.9394 5.67712 52.8288 5.88536 52.5479 6.04719C52.4193 6.12096 51.9195 6.50412 51.7767 6.65762C50.8412 7.66786 51.2197 8.31161 51.2197 8.31161C51.2197 8.31161 51.6398 8.16525 52.2968 7.2264ZM3.96107 25.7368C3.74565 25.7797 3.5826 25.8487 3.54689 25.9439L3.42312 26.2723L3.75755 26.3782C3.79802 26.3913 3.85276 26.3937 3.91465 26.3901C4.15982 26.3782 4.53234 26.2437 4.73705 26.0034C4.99412 25.7023 5.25595 25.7642 5.25595 25.7642C5.14289 25.5702 4.48235 25.6321 3.96107 25.7368ZM64.9588 1.66946C65.7229 1.60045 66.0883 0.994775 66.0883 0.994775C66.0883 0.994775 63.5508 0.816287 62.6261 2.19898C62.5261 2.34891 62.444 2.51669 62.3869 2.70588C62.6856 2.456 63.1141 2.2549 63.4473 2.09664C63.9638 1.85152 64.4958 1.71111 64.96 1.66946H64.9588ZM73.247 4.77159C73.1328 4.66807 72.6448 4.02908 71.9664 4.15283C71.8319 4.17782 71.6879 4.24921 71.5118 4.31466C71.4832 4.32537 71.4547 4.33608 71.4237 4.34798C71.4237 4.34798 71.5201 4.4039 71.6653 4.47649C72.1176 4.70257 73.2518 5.39154 73.247 4.77159ZM76.9841 9.37302C76.8675 8.64717 76.1748 7.1324 75.5654 7.17642C75.3274 7.19308 75.0561 7.35491 75.0561 7.35491C75.0561 7.35491 75.2334 7.49532 75.4333 7.68928C75.9344 8.1712 76.1498 8.29376 76.9841 9.37302ZM77.7601 14.285C77.9374 13.7936 78.2492 12.7 77.941 12.5073C77.7387 12.3811 77.359 12.5549 77.359 12.5549C77.359 12.5549 77.4411 12.6739 77.4959 12.8714C77.647 13.4152 77.6827 13.7103 77.7601 14.2838V14.285ZM69.4159 2.79751C70.199 2.83559 70.7168 2.27751 70.7168 2.27751C70.7168 2.27751 67.376 1.59093 66.9559 3.18423C66.9559 3.1878 66.9535 3.19018 66.9523 3.19375C66.9547 3.19375 66.9571 3.19137 66.9583 3.19137C67.8152 2.75943 68.634 2.76062 69.4147 2.79751H69.4159ZM38.1208 30.957C38.1446 31.627 36.726 31.4235 36.726 31.4235C36.726 31.4235 36.9616 31.4461 37.3889 32.4194C37.8162 33.3928 37.6948 35.023 37.6948 35.023C37.6948 35.023 38.5469 32.8859 38.1197 30.9582L38.1208 30.957ZM36.9247 4.92152C37.0664 4.97864 37.2163 5.03813 37.371 5.10001C38.2196 5.43676 39.1801 5.81872 39.6978 6.24947C39.962 6.46961 40.1048 6.68855 40.1881 6.84205C40.2762 6.52435 40.3952 5.88893 40.1441 5.33918C39.9846 4.99172 39.7002 4.72875 39.2967 4.55502C39.2396 4.53122 39.1813 4.50743 39.1206 4.4872C38.7302 4.35393 38.4089 4.25397 38.1518 4.17306C37.2235 3.88272 36.9164 3.78633 36.1761 3.10808C36.1178 3.25206 36.0297 3.46862 36.0071 3.7078C35.9988 3.79347 35.9988 3.88153 36.0107 3.97077C36.0666 4.37653 36.3749 4.69662 36.9271 4.92152H36.9247ZM33.0603 5.927C34.3516 6.19236 35.9107 7.20379 35.9476 7.22759C35.5703 6.12096 33.1305 4.93699 32.8675 4.50743C32.6557 4.57882 31.6643 5.63904 33.0615 5.927H33.0603ZM45.4736 7.39537C45.4736 7.39537 45.5724 6.58027 46.6031 5.90321C48.0348 4.96317 48.9072 5.48316 48.9072 5.48316C48.9072 5.48316 48.737 5.54147 48.2955 5.84371C48.1419 5.94842 48.0074 6.13048 47.8991 6.35657C47.7706 6.6243 47.742 6.83372 47.8158 6.96224C47.8789 7.07171 48.0241 7.13597 48.2443 7.15143C48.7394 7.18832 49.4273 6.77899 50.1307 6.02934L50.1676 5.99007C50.1902 5.96627 50.2128 5.94247 50.2354 5.91748L50.2664 5.88417C50.4687 5.65689 50.6532 5.39511 50.8174 5.10358C50.5782 5.21662 50.1997 5.33204 49.7201 5.27017C49.463 5.23685 49.1774 5.15474 48.8667 4.99172C48.5049 4.80134 48.1669 4.71804 47.8575 4.70376C47.2791 4.6764 46.5281 4.89772 46.1818 5.12738C45.2594 5.74019 45.2213 6.55052 45.2641 6.90274C45.2939 7.14548 45.3951 7.30493 45.4736 7.39418V7.39537ZM37.7471 42.7611C37.4198 42.7194 37.2639 42.3541 36.8867 42.5005L36.7807 42.8491L36.6296 43.3441L36.5701 43.5393C36.5701 43.5393 37.1247 44.5971 38.5564 44.5971C39.2943 44.1711 39.793 43.7332 40.1346 43.3405C40.2548 43.2025 40.356 43.0716 40.4393 42.9479C40.8094 42.4005 40.8582 42.015 40.8582 42.015C40.8582 42.015 40.619 43.0597 37.7471 42.7611ZM41.9686 6.73258C41.9686 6.73258 43.085 6.2459 43.0838 5.55337C43.0838 5.22138 42.9243 4.85131 42.7743 4.52766C42.6077 4.1683 42.4232 3.86725 42.3459 3.74707C42.2019 3.79823 41.8115 3.93626 41.6877 4.25397C41.4783 4.79301 41.8651 5.45936 42.0043 5.85323C42.1436 6.24709 41.9674 6.73377 41.9674 6.73377L41.9686 6.73258ZM57.6477 4.9001C57.9071 4.46816 58.6593 3.83155 59.1461 3.11879C59.3544 2.78442 59.233 2.54405 59.233 2.54405C59.233 2.54405 58.8462 2.78204 58.1464 3.19732C57.7738 3.41865 57.5596 3.98505 57.5441 4.39557C57.5275 4.81443 57.6477 4.9001 57.6477 4.9001ZM74.6228 42.623C73.5981 41.7996 72.6924 41.4759 72.6924 41.4759C72.6924 41.4759 73.3875 41.8008 73.7921 42.5778C74.6098 44.1461 75.9772 44.4436 75.9772 44.4436C75.9772 44.4436 75.8249 43.5892 74.6228 42.6218V42.623ZM73.6779 47.0662C73.8088 46.0464 73.1959 44.6971 73.1947 44.7482C73.1518 47.2804 72.7519 48.4156 72.7519 48.4156C72.7519 48.4156 72.4592 47.4815 71.9771 46.595C71.1036 44.9862 69.8301 43.7487 69.8301 43.7487C69.8301 43.7487 70.3347 44.6483 70.6251 45.5479C71.0655 46.9127 71.5154 48.6547 72.2283 49.2473C73.009 49.897 73.76 50.0743 73.76 50.0743C73.76 50.0743 73.3577 49.5698 73.6791 47.065L73.6779 47.0662ZM70.4276 50.6669C70.2633 52.3625 69.6575 53.4013 69.6575 53.4013C69.6575 53.4013 69.6385 51.9841 69.0648 49.8744V49.872C69.0589 49.853 69.0541 49.834 69.0494 49.8149C68.9577 49.4901 68.8518 49.145 68.7233 48.7749C68.7221 48.7714 68.7209 48.7678 68.7197 48.7642C68.7197 48.7642 68.872 50.1505 68.728 50.9989C68.5685 51.9389 68.5328 53.3764 69.0434 54.0915C69.554 54.8066 70.4454 54.4449 70.4454 54.4449C70.4454 54.4449 70.0598 53.9582 70.2669 53.4216C70.4514 53.0253 70.7132 52.3756 70.7453 51.6117C70.8274 49.6971 70.5121 48.5322 70.5121 48.5322C70.5121 48.5322 70.5263 49.6412 70.4264 50.6693L70.4276 50.6669ZM2.65666 16.108C2.978 16.2389 3.0137 16.0187 3.0137 16.0187C3.0137 16.0187 2.54954 15.3155 2.46742 13.9768C2.2413 14.7063 2.40554 16.0056 2.65666 16.108ZM2.71855 11.1067C2.71855 11.1067 2.978 10.4356 3.15533 10.0941C3.38741 9.64789 3.68852 9.17549 3.68852 9.17549C3.68852 9.17549 3.59331 9.07673 3.27435 9.18739C3.0018 9.2814 2.87446 9.35517 2.79948 9.68478C2.7126 10.0656 2.70069 10.7248 2.71855 11.1067ZM76.4569 38.7534C76.3462 38.4226 76.2129 38.2679 76.1022 38.1918C76.3498 39.2508 76.176 39.7149 76.176 39.7648L75.7464 39.2841C75.3167 38.8034 72.5448 36.5925 72.5448 36.5925C72.5448 36.5925 74.4574 38.2977 75.0822 39.5007C75.594 40.4847 76.1819 40.9988 76.6425 41.0012C76.6425 41.0012 76.608 39.4245 76.4961 38.9045C76.4842 38.8486 76.4712 38.7962 76.4569 38.7522V38.7534ZM76.1998 26.615C75.7594 26.9946 75.2989 27.1183 75.2989 27.1183C75.2989 27.1183 75.5928 27.2766 75.8547 27.4955C76.0486 27.6574 76.489 27.2671 76.6782 26.9422C76.9294 26.5103 76.9067 25.8189 76.9067 25.8189C76.9067 25.8189 76.727 26.1616 76.1998 26.6162V26.615ZM70.493 27.9501C70.493 27.9501 70.7691 28.6295 68.7292 28.6117C68.9863 29.3649 69.8313 29.2733 71.4511 31.2747C73.5517 33.8711 73.0114 33.9961 74.0516 34.6458C74.0516 33.1643 73.3887 31.0927 73.3887 31.0927L74.361 30.9368C74.361 30.9368 74.2479 30.8249 73.76 30.3621C73.2708 29.9004 72.2283 28.9794 72.2283 28.4939C72.2283 28.0084 74.7788 26.9577 74.7788 26.9577C72.7603 27.2695 70.837 26.2961 70.837 26.2961C70.837 26.2961 70.6763 25.7642 71.7665 25.293C72.8567 24.823 73.5458 24.04 73.5458 24.04C72.4461 23.9698 73.0649 23.5593 71.263 23.1C69.4623 22.6407 69.5671 21.703 69.5671 21.703C70.8108 21.703 72.9542 20.1418 74.2777 18.4688C74.2777 18.4688 73.4327 19.0792 73.1816 18.733C73.059 18.5628 73.147 18.3617 73.3327 18.1285C73.5719 17.8274 74.0504 17.6335 74.1337 17.4597C74.724 16.2294 74.3146 14.2981 74.3146 14.2981C74.3146 14.2981 74.48 14.6289 75.1346 14.8443C75.5869 13.1486 74.9323 12.048 74.9323 12.048C74.9323 12.048 75.1786 11.7445 76.1308 12.0016C75.7416 10.6236 75.1858 9.75261 72.9388 8.98154C73.0328 8.53413 74.1527 8.71975 74.1527 8.71975C72.8876 6.66952 71.5951 6.08407 69.166 6.48627C69.7694 5.43557 70.9905 5.11429 70.9905 5.11429C70.9905 5.11429 70.2014 4.45031 68.847 4.34798C65.611 4.10523 65.805 5.86394 64.7196 5.58193C64.6827 4.69305 65.7681 3.68043 65.7681 3.68043C65.7681 3.68043 64.5375 3.35201 63.0653 4.00766C60.0756 5.33799 60.272 6.46961 59.571 7.58457C58.8331 6.45652 59.0283 5.02028 59.0283 5.02028C59.0283 5.02028 58.025 5.41296 57.4668 6.89798C56.9276 8.33422 56.7598 8.52341 56.7598 8.52341C56.1017 7.90585 56.5777 7.26091 56.0338 7.04077C55.2888 8.25449 55.7137 8.84112 55.3162 10.5201C55.14 9.49796 54.4676 9.09934 54.4676 9.09934C54.4676 9.09934 54.5557 9.59435 54.0415 10.3856C53.625 9.76093 53.6238 9.0803 53.6381 8.8435C53.6024 9.04222 53.406 9.53009 52.3563 10.0358C50.9924 10.6915 48.8394 10.6784 48.8394 10.6784L51.76 11.7588C51.76 11.7588 51.4637 12.4276 51.9421 12.8547C52.4205 13.2819 53.3024 12.9237 55.1246 13.2688C56.9479 13.6139 57.0514 15.0299 57.0514 15.0299C57.0514 15.0299 58.451 13.6556 60.6933 13.5449C58.8414 14.479 59.0771 15.7712 58.9795 15.9628C59.2651 15.7284 61.5371 13.9435 64.6446 13.8578C62.2917 15.1263 61.3181 17.3122 61.3181 17.3122C61.3181 17.3122 64.553 17.3669 66.6298 18.6818C65.0861 17.994 62.4833 18.8008 62.4833 18.8008C62.4833 18.8008 65.2325 18.984 68.265 21.6126C67.3463 20.9141 65.1183 21.3044 65.1183 21.3044C65.1183 21.3044 65.8324 21.8862 67.8699 23.0536C69.9075 24.2197 70.0991 25.7261 70.0991 25.7261C70.0991 25.7261 69.9158 25.2335 69.2719 24.9265C68.8792 24.7385 65.8205 24.4803 65.8205 24.4803C65.8205 24.4803 67.5272 25.4727 68.5078 26.6995C69.4897 27.9275 70.4883 27.9525 70.4883 27.9525L70.493 27.9501ZM67.1558 38.6915C66.8131 39.4745 67.2451 42.6218 67.2451 42.6218C67.2451 42.6218 67.163 42.1256 66.7643 41.5735C66.6786 41.4545 66.5786 41.3343 66.4608 41.2153C66.3144 41.0678 66.143 40.9226 65.9407 40.7882C65.5848 41.7127 66.1906 41.9186 66.5572 44.3556C65.5705 42.9788 63.9722 42.7468 63.9722 42.7468C63.9722 42.7468 64.5208 43.7463 64.4792 46.8318C64.1912 45.7704 62.8368 45.4788 62.8368 45.4788C62.8368 45.4788 62.6059 45.837 63.6008 48.4715C60.1494 46.5878 57.7334 46.6533 57.5287 46.7235C57.581 46.6771 57.7524 46.4819 58.088 46.2487C58.4963 45.9655 59.1449 45.6288 60.1173 45.4396C60.0661 45.2682 60.0042 45.1088 59.9364 44.9577C59.6186 44.2556 59.1354 43.7725 58.6308 43.4417C57.6298 42.7837 56.5516 42.7206 56.5516 42.7206C56.5516 42.7206 59.0545 41.5854 62.982 44.5614C62.9213 44.3353 62.8487 44.1211 62.7677 43.9153C62.5357 43.3191 62.231 42.8098 61.893 42.3743C60.6171 40.7287 58.8783 40.1623 58.8783 40.1623C58.8783 40.1623 60.0911 39.6232 62.3583 41.2368C62.1822 39.5352 61.7989 38.6475 61.7989 38.6475C61.7989 38.6475 62.7261 38.5987 64.8338 40.1218C64.4804 38.0775 63.852 37.0006 62.9451 36.3724C64.5018 36.019 65.6265 37.0363 65.6265 37.0363C65.6265 37.0363 65.5384 35.8417 64.0436 33.9378C62.5476 32.0339 62.6523 31.4699 62.6523 31.4699C62.6523 31.4699 62.6047 31.2747 63.4128 31.3449C64.2209 31.4151 64.6898 32.1636 64.6898 32.1636C64.6898 32.1636 64.7124 31.6531 63.3783 29.3935C61.3312 25.9272 60.4315 26.6828 58.7426 25.055C58.7426 26.6864 59.2639 26.1795 59.3972 28.3154C59.5293 30.4513 59.0092 30.9844 59.0092 30.9844C59.0092 30.9844 58.8259 29.3066 57.656 29.2138C57.6977 29.8754 57.8417 35.1408 54.0975 35.7762C54.376 33.7771 53.6952 32.279 53.6952 32.279C53.6952 32.279 54.714 32.4218 56.3123 30.5191C55.5554 27.2516 52.2718 26.6376 52.2718 26.6376C52.2718 26.6376 52.3848 25.9784 53.9011 25.6309C51.1899 23.2904 48.4014 25.0669 48.4014 25.0669C48.4014 25.0669 48.1776 24.7397 48.9524 23.7354C46.4757 24.2958 45.5986 26.1795 45.5986 26.1795C45.5986 26.1795 44.9785 25.7404 44.8547 24.9622C44.362 25.0276 43.5027 26.9874 43.1385 28.6379C42.7743 30.2871 43.7312 30.5727 43.3492 30.6845C42.9671 30.7964 43.01 30.1693 42.4518 29.9361C41.8924 29.704 41.3235 30.1681 41.0427 31.7293C40.7618 33.2905 41.3997 33.8926 41.7246 33.9402C42.0484 33.9878 42.2495 33.5082 42.6434 33.444C43.0362 33.3797 43.0183 33.576 43.0183 33.8616C43.0183 34.1472 44.368 34.7017 44.368 34.7017C44.368 34.7017 43.9466 35.8071 43.7765 36.6413C43.6063 37.4742 43.8026 38.181 44.4179 37.6361C45.0333 37.0911 45.2618 37.4076 45.2618 37.4076C45.2618 37.4076 44.9654 37.7039 45.1701 38.018C45.3748 38.3322 45.7533 38.6725 45.8961 40.0468C46.0377 41.4212 46.3519 41.852 47.5183 43.005C47.5671 43.0526 47.6123 43.1002 47.6599 43.1478C48.4085 43.8986 49.0774 44.6566 49.5487 45.2254C49.7355 45.4503 49.8891 45.643 50.0045 45.7954C50.0283 45.8263 50.0569 45.8632 50.0771 45.8906C50.1224 45.9524 50.1664 46.0191 50.2104 46.0869C50.2687 46.1761 50.3247 46.269 50.377 46.3641C50.6829 46.9079 50.9019 47.4839 50.9019 47.4839C50.9019 47.4839 50.7912 47.1792 50.07 46.6688C49.3499 46.1583 49.0548 46.3594 49.0548 46.3594C49.0548 46.3594 49.0024 46.5046 49.1012 47.0186C49.1262 47.1507 49.1595 47.3006 49.2083 47.4851C49.2845 47.7754 49.4035 47.9896 49.5356 48.2359C49.7403 48.6167 49.9807 49.0724 50.1581 49.9982C50.1735 50.0791 50.1878 50.1695 50.2021 50.2588C50.2497 50.5527 50.2925 50.8835 50.3259 51.2714C50.0843 50.7109 49.2488 50.373 48.4561 50.179C48.4085 50.273 48.3835 50.3658 48.374 50.4622C48.3585 50.6324 48.3978 50.8192 48.474 51.0536C48.5168 51.1857 48.5716 51.3321 48.6358 51.501C48.8786 52.1436 48.8132 53.0039 48.8132 53.0039C48.8132 53.0039 48.6692 52.5696 47.5778 51.9901C47.4755 52.1852 47.4469 52.3435 47.4457 52.5244C47.4457 52.597 47.4481 52.6743 47.454 52.7576C47.4695 52.9753 47.4993 53.2431 47.4957 53.6358C47.4885 54.5579 47.1339 55.1291 47.1339 55.1291C47.1339 55.1291 46.8066 54.2628 46.2294 54.3652C45.9009 54.4235 45.6771 54.5199 45.7164 54.8887C45.7557 55.2576 45.3617 55.8216 45.3617 55.8216C45.3617 55.8216 45.3653 55.5039 44.6286 55.5599C43.8919 55.6158 43.9776 56.3297 43.4182 56.5475C42.8588 56.7664 42.672 56.3869 42.2911 56.2476C41.9103 56.1084 41.5128 56.4749 41.5128 56.4749C41.5128 56.4749 41.3985 56.162 40.9915 55.5373C40.5845 54.9125 40.1477 55.0839 39.7502 55.1291C39.7502 54.8316 39.9799 54.8019 40.2893 54.5591C40.4619 54.4235 40.6583 54.2236 40.8558 53.8726C41.1664 53.318 41.3474 52.3733 41.3474 52.3733C41.3474 52.3733 42.3804 52.5886 43.0766 52.4304C43.7729 52.2721 44.0335 52.0448 44.2585 51.532C44.4834 51.0191 44.7643 50.4967 45.3486 49.433C45.933 48.3692 46.246 47.4208 46.1794 46.6473C46.1127 45.8739 46.2484 45.8394 46.2317 45.1219C46.227 44.922 46.2044 44.7875 46.1472 44.6745C45.9985 44.3817 45.6081 44.2378 44.6227 43.519C44.3025 43.2858 44.0561 43.1371 43.8633 43.0443C43.3147 42.7789 43.2171 42.9717 43.2004 43.0264C43.198 43.0347 43.1968 43.0395 43.1968 43.0395C43.1968 43.0395 43.2897 43.1561 43.4265 43.3405C43.7634 43.7927 44.368 44.6518 44.556 45.2254C44.5846 45.3111 44.606 45.3932 44.6131 45.4634C44.6845 46.1952 44.318 46.238 44.318 46.238C44.318 46.238 44.049 45.4979 42.2578 45.4979C40.4666 45.4979 40.2715 46.3653 38.8528 46.3058C37.4341 46.2463 38.0756 45.5919 36.5463 45.3682C35.9179 45.2766 34.1707 45.6871 33.8268 45.8132C33.4828 45.9393 33.2436 46.1571 33.1924 45.7668C33.1698 45.5907 33.1662 45.4396 33.2067 45.2754C33.2567 45.0766 33.3721 44.8565 33.6125 44.5412C34.0529 43.9653 34.0636 43.7463 34.4695 43.6C34.7206 43.5095 34.8943 43.4227 35.0181 43.3477C35.2407 43.212 35.293 43.1157 35.293 43.1157C35.293 43.1157 34.911 43.0193 34.4171 43.0597C33.9232 43.1002 33.7339 43.1514 33.1222 43.0978C32.5117 43.0443 32.182 43.7892 31.5655 44.9898C31.2334 45.6359 30.943 45.9132 30.7943 46.1738C30.6669 46.3975 30.6455 46.6105 30.8014 47.0317C31.137 47.9455 31.2834 50.1326 32.088 50.7859C32.8925 51.4392 32.6723 51.5213 33.19 52.0389C33.534 52.3828 33.997 51.8628 34.385 52.0389C35.1086 52.3685 34.717 52.9623 35.1443 53.3894C35.487 53.7321 36.1214 54.0201 36.3689 54.7103C36.4296 54.878 36.4737 55.0637 36.4772 55.2874C35.9679 55.2683 35.7036 54.7091 35.2419 54.7222C34.7813 54.7352 34.9122 55.3409 34.21 55.8169C33.5078 56.2929 33.2257 55.9775 33.1781 55.642C33.1032 55.1113 31.6988 54.8542 30.4313 55.5468C29.6755 53.3454 29.153 53.5215 29.153 53.5215C29.153 53.5215 28.815 53.2693 28.3176 55.3588C28.0831 54.9542 28.1128 54.27 28.2176 52.9016C27.8474 52.8635 27.632 52.9397 26.9096 54.2962C26.9179 53.7321 26.9227 53.2074 26.9501 52.6993C27.0048 51.689 27.1572 50.7478 27.6665 49.715C27.6665 49.715 27.6356 49.6483 27.5856 49.5579C27.4761 49.3568 27.2666 49.0236 27.025 48.9177C26.674 48.7642 26.6561 49.4377 25.8147 49.5353C25.8706 49.3711 25.9242 49.2164 25.9765 49.0653C27.2845 45.3051 27.6237 45.3908 28.5687 43.9355C28.6865 43.7535 28.7853 43.5928 28.871 43.4476C29.0531 43.1347 29.1685 42.8896 29.2625 42.6456C29.4875 42.0614 29.5874 41.4783 30.1897 39.9564C29.4887 39.7863 28.4651 38.4297 28.4651 38.4297C28.4651 38.4297 28.94 38.7379 29.572 38.5095C30.2039 38.281 30.242 37.8752 30.242 37.8752C30.242 37.8752 30.4325 37.6837 32.2153 37.1827C32.539 37.3659 32.1725 37.8276 32.7544 38.682C34.0577 37.2196 33.7542 36.2974 34.498 34.5316C35.0491 34.6291 35.8417 35.1408 35.8417 35.1408C35.8417 35.1408 36.2583 35.192 36.2345 32.1696C36.1976 27.4884 35.0026 26.264 34.8789 26.264C34.7551 26.264 35.0015 26.8792 34.4837 26.8351C33.966 26.7923 34.1136 26.6721 33.3757 25.6904C32.639 24.7087 32.1201 24.5767 31.3441 24.1899C30.5693 23.8044 30.6074 23.6628 30.6074 23.6628C30.6074 23.6628 30.3967 24.1899 30.8288 24.6611C31.2608 25.1324 30.9764 25.3358 30.9764 25.3358C30.9764 25.3358 30.0802 24.6647 27.9367 24.7349C25.7932 24.8063 26.3907 25.1205 25.7754 25.2216C26.011 25.5786 27.3773 25.8618 27.2571 26.1117C27.1369 26.3615 26.737 26.0129 24.9554 27.0196C23.1749 28.0262 22.3299 30.0408 22.6286 30.2371C22.9273 30.4335 23.2154 30.6119 23.4403 30.8868C23.6652 31.1617 24.3686 30.2359 24.3686 30.2359C24.3686 30.2359 23.8069 31.1819 24.0604 31.7245C24.3151 32.2671 25.0542 32.0708 25.7742 32.2017C24.9482 33.0834 25.6314 35.1729 25.6314 35.1729C25.6314 35.1729 24.7197 34.2745 24.521 32.7633C24.0616 33.4166 23.3879 33.4333 23.3879 33.4333C23.3879 33.4333 23.157 33.1286 23.3879 32.7681C23.6343 32.3849 23.3856 31.8126 23.2713 31.6983C23.0297 31.4568 22.6274 31.3794 20.8493 31.646C20.2483 32.6729 20.4566 34.3685 20.4566 34.3685C20.4566 34.3685 19.2712 33.958 18.8237 31.997C18.1191 28.908 19.9341 27.11 19.9341 27.11C19.9341 27.11 19.6889 26.5745 18.9391 26.6079C17.6383 26.6662 16.9337 28.4237 15.3389 28.9865C13.7441 29.5493 12.9884 28.9496 12.9884 28.9496C12.9884 28.9496 12.5932 29.1448 13.0538 29.9896C13.8013 31.3592 15.2021 31.2283 15.258 31.2224C15.208 31.2283 14.7855 31.3211 13.4394 32.7455C11.9994 34.2698 12.7027 35.8226 12.7027 35.8226C12.7027 35.8226 13.061 35.6358 13.2752 35.3466C13.7168 34.7493 14.4868 34.9028 14.4868 34.9028C14.4868 34.9028 14.2845 35.3026 13.7168 36.4521C13.1502 37.6016 12.4326 38.519 12.4326 38.732C12.4326 38.945 12.6373 39.0806 13.8905 38.4595C13.3252 39.6565 13.349 40.1432 13.7453 40.7715C14.388 39.8886 15.4246 38.8141 17.0408 38.5499C15.74 39.4114 15.3806 40.4597 15.3806 41.3581C15.3806 41.3581 15.8114 41.0047 17.4788 40.5157C19.5176 39.9183 20.2543 40.7929 20.2543 40.7929C20.2543 40.7929 19.464 41.0035 18.3 41.6318C17.8763 41.8603 17.5217 42.0923 17.2182 42.3184C16.3613 42.9574 15.9435 43.5547 15.7472 43.9343C15.6127 44.1937 15.5782 44.3532 15.5782 44.3532C15.5782 44.3532 16.0185 44.1794 17.0563 44.1247C19.2629 44.0081 20.284 44.6102 20.7398 45.0766C21.0136 45.3575 21.0826 45.5895 21.0826 45.5895C21.0826 45.5895 17.3717 44.6935 14.4344 49.6495C14.3154 48.9713 14.1714 48.1954 14.5403 47.2149C14.7248 46.7247 15.0331 46.1845 15.5413 45.5776C15.4698 45.5502 15.3996 45.5288 15.3294 45.5086C14.3713 45.2456 13.4121 45.6859 11.6614 47.2304C11.565 46.7663 11.5602 46.3154 11.6114 45.887C11.6114 45.881 11.6114 45.8751 11.6126 45.8703C11.6149 45.8406 11.6197 45.8096 11.6233 45.7799C11.8375 44.302 12.7456 43.1121 13.1681 42.6266C13.3014 42.4743 13.3871 42.3898 13.3871 42.3898C13.3871 42.3898 12.0815 42.128 10.2391 43.4512C10.176 42.4826 10.282 42.0685 10.6914 41.2796C10.8366 41 11.0187 40.6739 11.246 40.2563C11.2139 40.2563 11.1805 40.2634 11.1484 40.267C10.3308 40.3312 9.56074 41.1666 9.06206 41.8531C8.9847 41.9602 8.91091 42.0638 8.84784 42.1601C8.62409 42.4981 8.49198 42.7456 8.49198 42.7456C8.49198 42.7456 8.2361 41.7115 8.55149 39.9481C8.62766 39.5209 8.73834 39.0521 8.89306 38.544C8.93115 38.4202 8.96804 38.2977 9.01089 38.1691C8.15279 39.0271 7.66244 39.8743 7.38395 40.7239C7.378 40.7465 7.36967 40.7703 7.36371 40.7929C7.36371 40.7941 7.36371 40.7953 7.36371 40.7965C6.96025 42.0852 7.03523 43.381 7.08165 44.7351C7.15544 44.5971 7.23756 44.4817 7.32206 44.3782C7.47202 44.1961 7.63388 44.0628 7.79098 43.9664C8.20872 43.7106 8.586 43.7106 8.586 43.7106C8.586 43.7106 8.054 45.6752 8.26704 47.4315C8.36701 47.2649 8.5015 47.1233 8.64908 47.0019C8.6836 46.9734 8.71811 46.946 8.75381 46.9198C9.29295 46.5295 9.96063 46.3963 9.96063 46.3963C9.96063 46.3963 9.0573 48.9141 10.1582 52.0353C10.1796 51.8842 10.226 51.7259 10.2903 51.5677C10.5688 50.8823 11.221 50.204 12.0041 50.1874C12.3243 50.1802 12.6647 50.2837 13.011 50.5432C12.9074 53.5394 13.562 55.2338 13.9822 56.0013C14.0762 56.1977 14.1928 56.3654 14.3118 56.5106C14.1155 57.0496 14.0678 57.8814 14.0595 58.4335C14.0393 59.2367 14.0595 59.6306 14.0667 59.7329C13.6703 59.2903 13.2086 58.3264 13.0836 57.8588C12.7373 56.5558 12.9515 55.6681 12.9515 55.6681C12.9515 55.6681 12.4671 55.8026 12.0589 56.8462C11.8399 57.4054 12.066 58.4704 12.5028 59.364C12.7861 59.9447 13.4097 60.0518 13.424 60.8324C13.424 60.8324 14.0107 60.673 14.2392 60.3874C14.6129 60.5968 15.3032 61.0323 16.0268 61.7475C16.028 61.7486 16.0292 61.7498 16.0316 61.7522C16.5934 62.3305 17.1313 62.7018 17.286 62.722C17.4526 62.0295 18.2262 62.6304 18.1406 61.8879C18.2393 62.7446 18.7511 63.1754 19.2855 63.43C19.2855 63.43 19.558 63.029 19.3593 62.1259L19.3664 62.1282C19.6663 63.2146 20.1995 63.0338 20.9826 63.7382C20.9826 63.7382 21.1338 62.985 21.1457 62.6244L21.1528 62.6268C21.2088 63.7929 21.9776 63.5895 22.4263 64.1618C22.3858 63.7918 22.3715 63.474 22.3834 63.1849C23.1737 64.2868 24.4448 64.6366 25.7909 65.535C25.6302 64.6604 26.3705 64.6663 26.1955 64.3165C27.7725 66.1668 28.3592 66.4286 29.9528 66.6142C29.904 66.4322 29.735 65.6385 29.6589 65.2946C29.8647 65.9455 30.6645 66.3846 30.6657 66.1704C30.6693 65.529 31.1918 65.3553 31.6 65.3482C31.6833 66.0145 31.9618 66.7059 32.5093 67.1616C32.5462 67.1378 32.9675 65.4326 34.3338 65.5838C34.3243 66.1359 34.3016 67.0724 34.3016 67.0724C35.4347 67.465 35.7013 65.8694 36.3916 66.0336C36.2713 66.9474 36.8462 68.0564 37.496 68.1183C37.5996 67.2687 37.859 66.6999 38.5564 66.0336C39.2622 66.2846 39.4253 66.9938 39.5871 67.446C40.3893 67.2175 40.9736 66.425 40.8118 65.9086C41.6116 66.0812 41.8805 67.5471 41.7532 67.9243C41.7532 67.9243 42.9231 67.2532 42.7529 66.2823C43.2111 66.5464 43.3635 67.2532 43.3635 67.2532C44.2597 66.6059 43.9693 66.2549 44.0371 65.6278C44.5167 65.8122 45.1201 66.7904 45.3367 67.2532C45.6176 66.6904 46.4364 65.1352 47.0756 64.9781C47.942 65.4208 47.3767 66.5071 47.3767 66.5071C47.3767 66.5071 48.5371 66.4929 49.4487 65.4683C49.5963 65.3018 49.701 65.0638 49.776 64.7841C50.2699 65.4017 51.1197 65.8277 51.1197 65.8277C51.1197 65.8277 51.7041 65.0935 52.4146 64.733C53.2191 64.3248 54.1558 64.3177 54.0391 64.9698C55.2638 64.7818 55.609 64.2023 55.7423 63.7906C55.8172 64.0083 56.0077 64.2641 56.448 64.476C57.0169 64.7508 57.7239 64.6354 57.7239 64.6354C57.7239 64.6354 56.8396 63.3717 58.0381 61.895C58.2856 62.3365 58.6962 63.0219 58.7343 63.3039C58.7343 63.3039 60.2434 62.2663 59.8661 60.8265C60.1411 60.7158 60.7814 61.4405 60.8754 62.3531C61.8085 61.8319 62.8011 60.9193 63.0403 60.3207C63.5461 61.193 64.8541 60.5456 64.8541 60.5456C64.8541 60.5456 64.4268 60.2743 64.5934 59.8959C64.5934 59.8959 66.969 58.1682 66.0633 55.7681C66.0157 55.6432 65.9621 55.5063 65.8931 55.3588C65.8705 55.31 65.8502 55.2648 65.8252 55.2148C65.7669 55.1006 65.7026 54.9827 65.6289 54.859C65.5955 55.0982 65.5467 55.3397 65.492 55.5789C65.3123 56.3631 65.0338 57.1329 64.7505 57.7957C64.6196 58.1015 64.4887 58.3824 64.3661 58.6322C64.1697 59.0321 63.9983 59.3474 63.8889 59.5402C63.8103 59.6782 63.7615 59.7591 63.7615 59.7591C63.7615 59.7591 63.7853 59.6484 63.8067 59.4676C63.8317 59.2605 63.8496 58.9583 63.8234 58.6049C63.7841 58.0658 63.6365 57.4161 63.2402 56.814C63.0617 56.5427 62.8356 56.281 62.5404 56.0465C62.5404 55.8335 62.5428 55.6432 62.5452 55.4718C62.5654 54.3842 62.6404 54.0951 62.6404 54.0951C62.6404 54.0951 63.0093 54.1558 63.5806 55.0161C63.7115 55.2136 63.852 55.4528 64.0019 55.7419C64.1507 55.3588 64.253 55.0601 64.3185 54.69C64.4363 54.0272 64.4351 53.136 64.3518 51.1131C64.5815 51.1595 64.8255 51.3428 65.0588 51.5772C65.3563 51.8771 65.6324 52.2602 65.8336 52.5684C66.0264 52.8647 66.1501 53.0884 66.1501 53.0884C66.4703 52.1769 66.9714 50.4646 66.7036 47.8551C66.5369 46.2249 66.0502 45.2861 66.0502 45.2861C67.0047 45.2861 67.7128 46.5831 67.7128 46.5831C67.7128 46.5831 69.1731 42.2625 67.1546 38.6832C67.1534 38.6856 67.1523 38.6903 67.1511 38.6927L67.1558 38.6915ZM28.7805 30.7952C28.9483 30.6655 29.1745 30.562 29.4184 30.512C29.5565 31.1093 29.5898 31.1355 29.6077 31.5496C29.3494 31.6531 29.0971 31.8102 28.8115 31.8959C29.0519 31.4806 28.5246 31.214 28.7793 30.7952H28.7805ZM28.0045 30.6096C27.5463 31.2283 27.106 33.5249 29.3839 33.9033C31.9582 34.3316 32.2332 31.7007 32.2332 31.7007C32.2332 31.7007 32.9901 32.16 33.2853 33.2226C33.2853 33.2226 31.3774 35.1253 29.0031 34.7719C26.6287 34.4185 26.2253 31.8971 26.2253 31.8971C26.2253 31.8971 27.0441 30.5132 28.0045 30.6096ZM21.8027 52.4589C21.7015 53.1027 20.3507 53.5263 19.9805 53.0789C19.7877 51.7676 21.0529 52.6648 21.8027 52.4589ZM17.7978 48.0479C18.4714 47.2447 19.7949 46.5664 20.121 46.5117C20.8017 46.3987 20.9124 46.6116 20.9124 46.6116C20.6708 46.6997 20.5887 46.8806 20.509 47.0662C20.0317 48.1776 17.4157 49.6055 16.9087 49.6329C17.1015 49.0474 17.4086 48.5108 17.7966 48.0467L17.7978 48.0479ZM17.9537 61.2275C17.8418 61.0252 17.7502 60.7777 17.7169 60.4647C17.605 60.7598 17.4276 60.9395 17.2622 61.0478C17.0885 61.162 16.929 61.1965 16.8766 61.1965C16.7802 61.1965 15.5889 60.9121 14.9843 59.6056C14.8819 59.3831 14.8129 59.1737 14.7677 58.9749C14.682 58.5418 14.6903 58.192 14.7308 57.9302C14.7927 57.5685 14.9129 57.3555 14.9129 57.3555C14.8938 57.5006 14.8938 57.5685 14.9176 57.6648C14.9628 57.8445 15.3437 57.8743 15.3996 58.5704C16.0411 56.726 16.8088 57.0794 17.0658 57.2769C17.1242 57.3221 17.1575 57.3578 17.1575 57.3578C17.1575 57.3578 17.0408 57.5827 16.9575 57.9956C16.848 58.5394 16.7957 59.4116 17.142 60.5361C17.5645 59.9935 17.4824 59.865 17.5217 59.5651C17.5383 59.4331 17.5776 59.27 17.699 59.0178C17.7157 58.9833 17.7323 58.9583 17.749 58.9262C18.1298 58.1955 18.5262 58.098 18.5262 58.098C18.5262 58.098 18.4774 58.6251 18.3345 59.8936C18.281 60.3707 18.3143 60.7777 18.3762 61.0989C18.4797 61.6332 18.6618 61.9331 18.6618 61.9331C18.6618 61.9331 18.2358 61.7427 17.9501 61.2275H17.9537ZM17.8799 51.5617C17.6919 51.1655 17.968 50.6443 18.2524 50.3337C18.5357 50.022 20.1733 48.6476 21.1802 48.3751C20.6232 49.2164 20.3257 48.907 19.8568 50.2528C19.389 51.5986 17.8799 51.5617 17.8799 51.5617ZM21.9312 62.177C21.9229 62.2496 21.9169 62.3246 21.911 62.4019C21.9002 62.5376 21.8931 62.6816 21.8907 62.8315C21.8907 62.8874 21.8872 62.9398 21.8872 62.9969C21.7919 62.9124 21.7122 62.835 21.6372 62.7601C20.8755 61.9914 21.1493 61.707 20.797 61.1668C20.797 61.8772 20.4471 61.6249 20.3935 62.4138C20.3888 62.4793 20.3864 62.5507 20.3864 62.6316C20.2959 62.5352 20.2209 62.4412 20.1567 62.3472C19.8841 61.9462 19.8484 61.5571 19.9317 61.0775C19.9841 60.7753 20.0805 60.4397 20.2031 60.0364C20.2709 59.8126 20.3043 59.6234 20.3257 59.4509C20.3554 59.2022 20.3495 59.0035 20.3221 58.8512C20.284 58.6346 20.2162 58.5061 20.1769 58.4502C20.1614 58.4276 20.1483 58.4121 20.1483 58.4121C20.1483 58.4121 20.1614 58.4181 20.1686 58.4228C20.2721 58.474 21.0076 58.869 21.041 59.7543C21.0778 60.7063 21.5146 60.811 21.5146 60.811C21.5146 60.811 21.5765 60.46 21.8586 60.1363C22.1656 59.7841 22.3811 59.79 22.5191 59.8805C22.6524 59.9685 22.7143 60.1351 22.7143 60.1351C22.7143 60.1351 22.1002 60.6396 21.93 62.1758L21.9312 62.177ZM25.2053 63.7549C24.9447 63.5966 24.634 63.5014 24.1949 63.4431C23.4498 63.3431 23.1142 62.8339 22.9619 62.421C22.85 62.1175 22.8369 61.8653 22.8369 61.8653C22.8369 61.8653 22.9833 62.0759 23.3737 62.1068C23.4201 62.1104 23.4677 62.1128 23.5212 62.1104C23.6771 62.1044 23.8116 62.183 23.9283 62.2913C24.1877 62.5328 24.3412 62.9302 24.3412 62.9302C24.3412 62.9302 24.3853 62.5376 24.4745 61.9355C24.4948 61.7986 24.5483 61.7011 24.6162 61.6237C24.8471 61.3631 25.2624 61.3988 25.2624 61.3988C25.2624 61.3988 24.759 62.4507 25.1446 63.0445C25.3731 63.3967 25.4719 63.6728 25.5159 63.8429C25.5457 63.9595 25.5516 64.0274 25.5516 64.0274C25.4445 63.9167 25.3279 63.831 25.2041 63.7561L25.2053 63.7549ZM28.9662 64.263C28.8424 64.3938 28.7829 64.5069 28.7531 64.6045C28.6877 64.8246 28.7984 64.9507 28.7984 64.9507C28.7984 64.9507 27.901 64.8936 27.3547 64.3546C27.2774 64.2784 27.2071 64.1928 27.1476 64.0952C26.693 63.3598 26.8549 62.8493 27.0786 62.5459C27.2464 62.3174 27.4499 62.2056 27.4499 62.2056C27.5523 62.271 27.6296 62.34 27.6915 62.4114C27.8522 62.5994 27.8891 62.8089 27.9153 63.0469C27.9522 63.3753 27.9748 63.7572 28.2783 64.2142C28.2973 64.2427 28.3152 64.2713 28.3366 64.301C28.3402 64.276 28.3509 64.257 28.3568 64.232C28.4711 63.7073 28.8888 63.4728 29.153 63.3777C29.2792 63.3324 29.3732 63.3146 29.3732 63.3146C29.3732 63.3146 29.3732 63.8322 28.9674 64.263H28.9662ZM44.8047 58.6989C44.7964 58.7001 44.7893 58.7013 44.7893 58.7013C44.7893 58.7013 44.7893 59.0773 44.913 59.4616C44.9868 59.6901 45.1035 59.9209 45.2903 60.0768C43.8693 59.5651 44.1918 59.539 43.5765 59.5651C43.4051 59.7317 43.3206 59.9233 43.2944 60.122C43.2754 60.2601 43.2837 60.4028 43.3123 60.5444C43.3551 60.7563 43.4396 60.9657 43.5349 61.1513C42.7136 60.8134 42.4173 60.3755 42.4173 60.3755C42.4173 60.3755 42.741 61.1846 42.4482 61.876C41.946 60.8812 41.3973 61.212 41.3973 61.212C41.3973 61.212 41.7103 62.2163 41.17 62.5471C41.0415 61.8665 40.7832 61.9724 40.7832 61.9724L40.5023 62.2663C40.5023 62.2663 40.3798 61.7546 39.9596 61.5297C39.1634 62.0687 39.5228 62.4852 38.829 62.4852C38.3767 61.1239 38.1684 61.3405 38.1684 61.3405C38.1684 61.3405 37.6424 61.5749 37.5174 62.9683C36.7236 62.0033 37.0069 61.3833 37.0592 61.2882C37.064 61.2798 37.0676 61.2739 37.0676 61.2739C37.0676 61.2739 37.0604 61.2739 37.058 61.2739C37.0081 61.2786 36.5403 61.3441 36.4237 62.1294C36.1654 61.4702 36.3808 61.2774 36.1476 61.043C35.9143 60.8098 35.124 61.3298 35.124 62.114C34.3064 61.6582 34.4778 61.0775 34.5516 60.9074C34.5647 60.8764 34.5754 60.8562 34.5754 60.8562C34.5754 60.8562 34.5551 60.8455 34.5278 60.8312C34.3921 60.7634 33.9494 60.5885 33.3091 60.8122C32.5366 61.0835 32.0987 61.4345 32.0987 61.4345C32.0987 61.4345 32.0963 61.1703 32.151 60.8467C32.207 60.5195 32.3236 60.1304 32.564 59.89C32.9056 59.5485 32.9115 59.3986 32.614 59.3355C32.495 59.3105 32.3308 59.2962 32.113 59.2927C31.3501 59.2796 30.8347 59.2736 30.8347 59.2736C30.8347 59.2736 31.1561 59.1213 31.2084 58.7524C31.2084 58.7477 31.2108 58.7441 31.212 58.7393C31.231 58.5823 31.1692 58.4942 31.0918 58.4038C30.9811 58.2741 30.8359 58.136 30.8359 57.7814C30.8359 57.7814 31.0323 57.8885 31.2632 58.0492C31.3489 58.1087 31.4393 58.1753 31.5274 58.2479C31.8487 58.5144 32.1213 58.8452 33.0187 58.6453C33.997 58.4276 34.5063 58.5133 34.5278 58.9309C34.5468 59.3176 34.8717 59.2891 35.4954 59.3117C35.8929 59.326 36.5379 59.4545 36.8997 59.4176C37.7126 59.3343 38.3946 59.057 38.735 59.1094C39.4241 59.2141 39.4145 60.0102 40.062 59.5116C41.0641 58.7393 41.9091 58.7715 42.7755 58.9059C43.642 59.0404 43.667 58.9309 43.667 58.9309C43.667 58.9309 43.3956 58.3835 44.2608 58.3181C44.4465 58.3038 44.5953 58.28 44.7214 58.2515C44.8595 58.2205 44.9654 58.186 45.0452 58.1503C45.2344 58.0658 45.2891 57.9837 45.2891 57.9837C45.2891 57.9837 45.3689 58.0325 45.4581 58.1146C45.5795 58.2265 45.7212 58.4014 45.7164 58.6192C45.2332 58.6192 44.875 58.6822 44.8036 58.6953L44.8047 58.6989ZM49.0429 64.5521C49.0274 64.5795 49.0107 64.6021 48.9953 64.6271C48.4478 65.491 47.8444 65.2827 47.7742 65.297L47.7599 65.2839C47.7563 65.2256 47.8741 64.9745 48.011 64.5676C48.0467 64.4629 48.0824 64.351 48.1193 64.2261C48.3216 63.5264 48.1467 62.7125 48.1467 62.7125C48.4633 62.7422 48.6085 62.9909 48.6716 63.2706C48.6894 63.3503 48.7013 63.4324 48.7085 63.5133C48.7334 63.8263 48.6882 64.1118 48.6882 64.1118C48.6882 64.1118 48.887 63.7287 49.2333 63.3979C49.4273 63.2134 49.6665 63.0433 49.945 62.9695C49.6808 63.2622 49.6023 63.5978 49.0429 64.5521ZM54.5604 47.6445C55.7994 47.7147 55.2448 46.8199 58.2606 48.6131C59.114 49.1212 59.7209 49.7162 60.1625 50.3111C61.3181 51.8699 61.2955 53.4311 61.2955 53.4311C61.2955 53.4311 61.2265 53.13 61.0146 52.7005C60.8266 52.3197 60.5231 51.839 60.0482 51.3666C59.4984 50.8192 58.7224 50.2885 57.6227 49.9565C54.5057 49.0153 54.4724 47.6385 54.4724 47.6385C54.5045 47.6409 54.5307 47.6409 54.5616 47.6433L54.5604 47.6445ZM49.169 30.8571C49.2131 31.0582 49.3047 31.646 49.2928 32.0886C49.0619 32.1386 48.8298 32.1934 48.5966 32.2433C48.4228 31.9923 48.4347 31.6722 48.3466 31.389C48.6501 31.3271 48.8763 30.938 49.169 30.8583V30.8571ZM49.507 35.205C47.3802 35.205 46.3615 33.8176 46.1568 33.1263C46.4198 32.0934 47.3517 31.7257 47.3517 31.7257C47.3517 31.7257 47.1339 32.4718 47.7968 33.5927C48.4181 34.6434 50.3925 34.7672 51.209 33.5844C52.0254 32.4016 51.8993 31.4723 51.3839 30.957C52.4467 31.3806 52.9847 32.2647 53.1144 32.7955C52.774 33.557 51.6672 35.205 49.5059 35.205H49.507ZM54.9675 63.624C54.7235 63.8346 54.6485 63.5323 54.6913 62.9695C54.1808 63.2491 54.3474 63.7073 54.0344 64.019C53.8511 64.2023 53.0156 63.1837 53.0156 63.1837L52.5717 63.9238C52.1278 64.664 51.3256 64.5295 51.3256 64.5295C51.3839 64.1856 50.8567 63.9143 51.0864 63.7073C50.4889 64.0987 50.4556 64.633 50.4556 64.633C50.4556 64.633 50.3009 64.4093 50.3128 63.9036C50.3163 63.7477 50.3342 63.5669 50.3782 63.3562C50.5496 62.5435 51.0495 62.0366 51.3982 61.7713C51.4648 61.7213 51.5243 61.6796 51.5767 61.6463C51.6874 61.5761 51.7576 61.5416 51.7576 61.5416C51.5827 61.845 51.5053 62.1211 51.4851 62.365C51.4577 62.7006 51.5422 62.9731 51.6446 63.173C51.7719 63.4229 51.9266 63.5597 51.9266 63.5597C51.9266 63.5597 51.9469 63.3015 52.0516 62.9493C52.0802 62.8517 52.1147 62.7482 52.1587 62.6387C52.3146 62.2437 52.5753 61.7986 53.0025 61.4643C53.093 61.3941 53.1918 61.3298 53.2965 61.2715C53.3405 61.2465 53.3822 61.2203 53.4286 61.1989C53.2239 61.4036 53.1477 61.8046 53.2536 62.271C53.2548 62.277 53.2572 62.2829 53.2584 62.2889C53.3155 62.534 53.4203 62.7958 53.5893 63.0576C53.7154 62.9398 53.6988 62.6232 53.8285 62.0176C53.8273 62.0045 53.8261 61.9914 53.8249 61.9795L53.8404 61.9712C53.8773 61.8058 53.9225 61.6249 53.9868 61.4143C54.1939 60.742 54.6854 60.2981 54.9972 60.072C55.1567 59.9566 55.2721 59.8948 55.2721 59.8948C55.2721 59.8948 55.3162 60.2065 55.1234 60.8027C55.1031 60.8657 55.0817 60.93 55.0555 61.0002C55.0091 61.1239 54.9829 61.2406 54.9651 61.3548C54.9318 61.5654 54.9377 61.7594 54.9698 61.9379C55.0222 62.2294 55.1341 62.484 55.2162 62.7137C55.3769 63.1575 55.2126 63.4157 54.9687 63.6264L54.9675 63.624ZM57.2704 61.2739C57.1847 62.4055 56.6991 61.97 56.5658 63.3003C56.3183 63.198 56.1493 63.0885 56.06 62.9314C56.0112 62.8458 55.991 62.7422 55.9922 62.6209C55.9934 62.3841 56.085 62.0687 56.2814 61.6166C56.3076 61.5571 56.3207 61.5059 56.3409 61.4488C56.4849 61.0549 56.5063 60.7491 56.4742 60.5242C56.4468 60.3315 56.3873 60.1922 56.3385 60.1125C56.3338 60.1054 56.3314 60.1018 56.3266 60.0958C56.2957 60.0494 56.2719 60.0221 56.2719 60.0221C56.2719 60.0221 56.2897 60.0245 56.3207 60.0304C56.3826 60.0423 56.4968 60.0697 56.6253 60.1268C56.7134 60.1661 56.8086 60.2196 56.8979 60.2922C56.9229 60.3124 56.9479 60.3362 56.9717 60.36C56.9883 60.3767 57.0038 60.3945 57.0205 60.4124C57.1633 60.5754 57.2692 60.805 57.274 61.1287C57.274 61.1751 57.2752 61.2227 57.2716 61.2727L57.2704 61.2739ZM56.9895 59.1165C56.9979 59.6353 57.0205 60.1661 57.0205 60.1661C57.0229 60.1339 56.0814 59.1201 56.1695 58.3609C56.1719 58.3431 56.1778 58.3336 56.1814 58.3169C56.2671 57.7969 56.6884 57.8041 56.8896 58.0754C56.9574 58.167 56.9991 58.286 56.9943 58.424C56.9943 58.4442 56.9931 58.468 56.9919 58.4895C56.9872 58.6668 56.9872 58.8905 56.9919 59.1165H56.9895ZM54.3795 51.5106L54.3498 51.081L54.2617 49.7875C54.2617 49.7875 56.692 49.5936 57.6001 53.7179C57.6548 53.9654 57.7048 54.226 57.7477 54.5056C56.2802 51.7021 54.3795 51.5106 54.3795 51.5106ZM58.7783 62.4507C58.7783 62.4507 58.8295 62.0949 58.6022 61.2739C58.5689 61.1525 58.526 61.0192 58.4796 60.8764C58.4344 60.7408 58.3832 60.5956 58.3237 60.4409C58.2916 60.3564 58.2594 60.272 58.2225 60.1803C58.2059 60.1411 58.1952 60.1077 58.1785 60.0661C58.119 59.9221 58.0702 59.7936 58.0262 59.671C57.8488 59.176 57.7917 58.8452 57.7929 58.6275C57.7929 58.3907 57.8583 58.2848 57.906 58.2396C57.9321 58.2146 57.9524 58.2074 57.9524 58.2074C57.9583 58.2515 57.9678 58.2895 57.9762 58.3288C58.1083 58.9571 58.5689 59.0654 58.7867 59.3295C59.0664 59.6687 59.1401 59.8305 59.2092 60.3553C59.4032 61.8296 58.7783 62.4483 58.7783 62.4483V62.4507ZM61.9453 60.5992C61.8692 60.642 61.8108 60.6325 61.8108 60.6325C61.8108 60.6325 61.5573 59.0213 61.3598 58.1122C61.3407 58.1301 61.3276 58.1468 61.311 58.1646C60.7576 58.7524 61.4502 59.445 60.3541 60.4707C60.4422 59.9257 60.2517 59.2224 60.0006 58.5894C59.665 57.7458 59.2199 57.0294 59.1758 56.9854C59.1758 56.9854 59.2068 56.933 59.283 56.8771C59.3853 56.8021 59.571 56.7188 59.8995 56.7415C59.8995 56.7415 59.9007 56.7415 59.9018 56.7415C59.9744 56.7462 60.0411 56.7664 60.1006 56.7962C60.5195 57.0056 60.6552 57.7291 60.6552 57.7291C60.6552 57.7291 60.7064 57.6732 60.7492 57.4899C60.7849 57.3376 60.8171 57.0984 60.8099 56.7165C60.7945 55.874 61.0729 55.6979 61.0729 55.6979C61.0729 55.6979 61.6597 55.8966 62.0179 56.9057C62.0703 57.0544 62.1179 57.221 62.1584 57.4066C62.1953 57.5756 62.2262 57.7577 62.2488 57.9611C62.469 60.0042 62.1441 60.4885 61.9453 60.6004V60.5992ZM53.65 8.7495C53.65 8.7495 53.6464 8.78877 53.6428 8.8435C53.6535 8.78401 53.65 8.7495 53.65 8.7495ZM76.9948 18.6485C76.9948 18.6485 76.6235 19.0959 75.8082 19.6028C74.674 20.3072 73.4946 20.4417 73.4946 20.4417C73.4946 20.4417 74.6347 21.0438 76.1331 20.3703C75.0073 22.4003 72.621 22.2492 72.3354 22.2182C72.2544 22.2099 73.9528 22.6466 75.431 21.9267C75.9177 21.6899 76.5759 21.0224 76.5759 21.0224L75.9142 20.9795C77.2697 20.3608 76.996 18.6485 76.996 18.6485H76.9948ZM72.5448 25.5167C72.5329 25.5167 73.8231 26.264 75.2084 25.4846C76.9829 24.485 77.2674 23.539 77.2674 23.539C77.2674 23.539 76.4021 24.2054 75.1608 24.6945C73.9921 25.155 72.8828 25.5345 72.5448 25.5167ZM75.6309 28.908C74.7073 28.5641 74.0539 28.7342 74.0539 28.7342C74.0539 28.7342 74.8299 28.9722 75.45 29.5232C76.0701 30.0753 76.295 30.719 76.295 30.719C76.295 30.719 76.6806 29.2983 75.6321 28.908H75.6309ZM74.7871 31.9423C74.7871 31.9423 75.2191 32.6717 75.4595 33.5094C75.6999 34.3459 75.857 34.9599 75.857 34.9599C75.8963 35.1337 76.7235 34.6077 76.1331 33.463C75.7701 32.7586 74.7883 31.9435 74.7883 31.9435L74.7871 31.9423ZM3.49572 32.9061C2.94706 32.7764 2.24368 32.9359 1.68073 33.1251C1.57243 33.1643 1.45817 33.2298 1.35344 33.3143C1.1535 33.4761 0.991634 33.7153 0.988064 34.0127C0.985683 34.2614 0.846436 34.5661 0.846436 34.5661C0.846436 34.5661 1.41057 34.4364 1.65336 34.1758C2.61143 33.1477 3.49572 32.9073 3.49572 32.9073V32.9061ZM2.38768 40.2527C2.45552 39.96 2.53526 39.6946 2.61143 39.4709C2.67213 39.2008 2.72331 39.0771 2.76496 39.0592C2.84589 38.8617 2.90302 38.7463 2.90302 38.7463C2.90302 38.7463 1.40462 39.1568 1.25823 41.3296C1.60337 41.4034 2.04135 41.1951 2.38768 40.2527ZM3.46953 21.0878C3.72423 21.2187 4.25265 21.2306 4.78941 21.1985C4.97984 21.1866 5.17145 21.1699 5.35117 21.1509C5.87721 21.0592 6.18784 21.0378 6.18784 21.0378C6.18784 21.0378 6.16285 21.0152 6.11167 20.976C5.94862 20.8522 5.50708 20.5583 4.67278 20.2656C4.23004 20.1109 3.75041 20.03 3.3291 19.9895C2.6995 19.9502 2.35555 19.8788 1.85212 20.6035L1.64503 21.0628C1.64503 21.0628 2.41863 20.5464 3.46953 21.0878ZM77.7149 15.751C77.3947 16.9683 76.5271 17.5621 76.5271 17.5621C76.5271 17.5621 76.971 17.9892 77.9434 17.0076C77.8339 16.7969 77.7149 15.751 77.7149 15.751ZM3.31362 42.8896C3.3291 42.391 3.36956 42.0709 3.36956 42.0709C3.36956 42.0709 3.11606 42.1875 2.58882 43.0621C2.08181 43.8701 2.41268 44.6102 1.77356 45.2492C1.77356 45.2492 2.09729 45.2492 2.42339 45.1623C2.45076 45.1516 2.47933 45.1433 2.50789 45.1385C2.60072 45.11 2.68998 45.0719 2.77091 45.0255C3.18747 44.7113 3.28744 43.8391 3.30767 43.2049C3.30767 43.093 3.31005 42.9883 3.31243 42.8896H3.31362ZM3.28744 18.6163C3.64092 18.3903 3.91703 18.4735 3.91703 18.4735C3.91703 18.4735 2.43172 17.8548 2.0473 16.8576C1.9259 17.6263 2.93396 18.8424 3.28744 18.6163ZM11.2734 55.2076C11.3293 53.7321 11.7066 52.4066 12.0065 51.739C12.0065 51.739 11.1044 52.2305 10.5414 54.5151C9.74402 57.7529 10.9651 58.4264 11.484 58.6584C11.6435 58.7298 11.6637 58.6144 11.6245 58.518C11.2091 57.5209 11.2638 55.4611 11.2734 55.2065V55.2076ZM67.3165 51.4784C67.213 53.7238 66.2668 56.3107 66.6857 58.0099C67.132 56.4821 67.7747 56.4963 68.1044 55.3088C68.2591 54.7507 68.2948 53.938 68.0425 53.0753C67.839 52.3816 67.4926 51.7045 67.3177 51.4796L67.3165 51.4784ZM8.59909 54.3985C7.63031 52.9623 8.28489 50.63 8.28489 50.63C8.28489 50.63 7.91118 50.7811 7.50058 51.1714C7.05904 51.5915 6.38779 52.4815 6.11405 53.2014C5.77129 54.107 6.05217 54.696 6.05217 54.696C6.05217 54.696 6.92455 52.9099 7.76242 53.1812C7.74218 53.8059 7.70886 54.5817 8.10756 55.1315C8.50626 55.6824 9.29057 55.7752 9.29057 55.7788C9.20488 54.4366 9.66071 52.8778 9.66071 52.8778C9.66071 52.8778 9.21916 52.8302 8.59909 54.3985ZM5.44281 45.6478C5.44281 45.6478 4.50854 46.1178 4.1265 47.8063C3.91584 47.3672 3.75755 46.8984 3.63854 46.426C3.33743 46.7235 3.26959 47.1721 3.31243 47.6314C3.4005 48.1145 3.51357 48.581 3.65877 48.9332L3.84086 49.3711C3.84086 49.3711 3.89442 49.4246 4.22409 50.1124C4.22409 50.1124 4.9239 48.3989 5.1179 47.2685C5.23691 46.338 5.44281 45.6466 5.44281 45.6466V45.6478ZM5.31903 50.2968C5.26309 50.1445 5.21906 50.0208 5.18097 49.8601C4.73586 50.2338 4.69063 51.2024 4.79536 52.1638C4.88224 52.7719 5.27857 53.4168 5.27857 53.4168C5.27857 53.4168 5.74035 50.1124 6.64843 48.2049C6.49133 48.2049 5.81294 48.5619 5.32022 50.2956L5.31903 50.2968ZM4.50735 5.84609C4.62041 6.03886 4.95127 5.76042 5.1774 5.60097C5.65703 5.26303 6.14857 4.74541 6.80791 4.3694C4.65374 5.01552 4.50616 5.49268 4.50616 5.84609H4.50735Z" fill="#FFAD00"/>
</svg>