<?xml version="1.0" encoding="utf-8"?>
<!-- Generator: Adobe Illustrator 27.2.0, SVG Export Plug-In . SVG Version: 6.00 Build 0)  -->
<svg version="1.1" id="Layer_1" xmlns="http://www.w3.org/2000/svg" xmlns:xlink="http://www.w3.org/1999/xlink" x="0px" y="0px"
	 viewBox="0 0 614.32 141.73" style="enable-background:new 0 0 614.32 141.73;" xml:space="preserve">
<style type="text/css">
	.st0{fill:none;}
	.st1{fill:#58BBEA;}
	.st2{fill:#17A951;}
	.st3{fill:#4AA061;}
	.st4{fill:#FFFFFF;}
	.st5{fill:#004065;}
	.st6{fill:#7495C1;}
	.st7{fill:none;stroke:#FFFFFF;stroke-width:0.7087;stroke-linecap:round;stroke-linejoin:round;stroke-miterlimit:10;}
</style>
<path class="st0" d="M365.65,75.13L365.65,75.13c-0.43,0.24-0.84,0.48-1.21,0.72C364.81,75.61,365.21,75.37,365.65,75.13z"/>
<path class="st1" d="M386.56,71.11c-0.32,0.75-0.76,1.45-1.34,2.07l-8.69,9.27c-0.62,0.66-1.66,0.69-2.32,0.07
	c-0.02-0.02-0.05-0.05-0.07-0.07c-2.83-3.01-5.66-6.02-8.5-9.03l0.01,1.71c0,0,0,0,0,0l0,0c-0.43,0.24-0.83,0.48-1.21,0.72
	c-5.62,3.65-4.91,7.71-2.05,10.53c0.22,0.41,0.82,0.73,1.57,1.06c1.79,0.79,4.44,1.67,4.98,4.12v6.76c2.22,0.56,4.53,0.89,6.92,0.89
	c13.54,0,24.84-9.5,27.65-22.19C396.82,77.67,388.37,72.32,386.56,71.11z"/>
<path class="st1" d="M364.54,64.58c0.25-0.41,0.54-0.81,0.88-1.17c2.57-2.73,6.92-2.73,9.49,0l0.41,0.43l0.41-0.44
	c1.28-1.37,3.02-2.05,4.75-2.05c1.73,0,3.45,0.69,4.74,2.05c0.44,0.46,0.79,0.97,1.08,1.51c6.24-4.59,5.1-8.86,1.74-11.47
	c-0.92-1.3-6.91-0.46-7.13-4.35l-0.76-6.22c-1.4-0.21-2.83-0.36-4.3-0.36c-10.86,0-20.28,6.11-25.04,15.08
	C358.84,57.09,362.84,61.72,364.54,64.58z"/>
<path class="st2" d="M363.95,87.45c-0.75-0.33-1.35-0.65-1.57-1.06c-2.86-2.83-3.57-6.89,2.05-10.53c0.37-0.24,0.78-0.48,1.21-0.72
	c0,0,0,0,0,0l-0.01-1.71c-0.07-0.07-0.14-0.15-0.21-0.22c-2.22-2.37-2.52-5.94-0.88-8.62c-1.69-2.86-5.7-7.49-13.73-6.98
	c0,0,0,0,0,0c-2.1,3.96-3.3,8.47-3.3,13.27c0,13.27,9.12,24.37,21.43,27.46v-6.76C368.4,89.12,365.74,88.25,363.95,87.45z"/>
<path class="st3" d="M362.39,86.39c-2.86-2.83-3.57-6.89,2.05-10.53C358.81,79.5,359.53,83.56,362.39,86.39
	c0.47,0.41,0.82,0.73,1.57,1.06C363.21,87.12,362.61,86.8,362.39,86.39z"/>
<path class="st2" d="M380.15,42.88l0.76,6.22c0.21,3.89,6.2,3.05,7.13,4.35c3.37,2.6,4.5,6.87-1.74,11.47
	c0.09,0.16,0.16,0.32,0.24,0.49c0.79,1.81,0.8,3.89,0.03,5.71c1.73,1.15,9.48,6.06,15.99,5.96c0.31,0,0.63-0.01,0.95-0.04
	c0,0,0,0,0,0c0.44-1.98,0.69-4.04,0.69-6.16C404.2,56.67,393.76,44.95,380.15,42.88z"/>
<g>
	<path class="st4" d="M424.66,55.31c1.3,0,1.95-0.31,2.4-0.79c0.42-0.45,0.65-1.02,0.65-1.66c0-0.65-0.23-1.24-0.65-1.69
		c-0.45-0.48-1.1-0.79-2.4-0.79h-3.44v4.94H424.66z M421.22,58.7v8.04h-3.81V46.99h7.42c2.54,0,4.04,0.62,5.14,1.78
		c0.99,1.02,1.55,2.54,1.55,4.09c0,1.55-0.56,3.07-1.55,4.09c-1.07,1.13-2.6,1.75-5.14,1.75H421.22z"/>
	<path class="st4" d="M456.88,58.98h5.02l-2.51-5.84L456.88,58.98z M449.6,66.74l8.47-19.75h2.68l8.47,19.75h-3.98l-1.86-4.38h-7.93
		l-1.86,4.38H449.6z"/>
	<polygon class="st4" points="472.05,46.99 474.73,46.99 485.73,59.86 485.73,46.99 489.54,46.99 489.54,66.74 486.86,66.74 
		475.86,53.87 475.86,66.74 472.05,66.74 	"/>
	<polygon class="st4" points="498.45,50.37 498.45,54.47 504.51,54.47 504.51,57.85 498.45,57.85 498.45,63.35 506.77,63.35 
		506.77,66.74 494.64,66.74 494.64,46.99 506.49,46.99 506.49,50.37 	"/>
	<polygon class="st4" points="523.85,46.99 523.85,50.37 518.63,50.37 518.63,66.74 514.82,66.74 514.82,50.37 509.6,50.37 
		509.6,46.99 	"/>
	<g>
		<polygon class="st4" points="434.92,46.99 438.73,46.99 438.73,63.35 447.05,63.35 447.05,66.74 434.92,66.74 		"/>
		<g>
			<path class="st4" d="M424.66,84.49c1.3,0,1.95-0.31,2.4-0.79c0.42-0.45,0.65-1.02,0.65-1.66c0-0.65-0.23-1.24-0.65-1.69
				c-0.45-0.48-1.1-0.79-2.4-0.79h-3.44v4.94H424.66z M421.22,87.88v8.04h-3.81V76.17h7.42c2.54,0,4.04,0.62,5.14,1.78
				c0.99,1.02,1.55,2.54,1.55,4.09c0,1.55-0.56,3.07-1.55,4.09c-1.07,1.13-2.6,1.75-5.14,1.75H421.22z"/>
			<path class="st4" d="M437.68,88.16h5.02l-2.51-5.84L437.68,88.16z M430.4,95.92l8.47-19.75h2.68l8.47,19.75h-3.98l-1.86-4.38
				h-7.93l-1.86,4.38H430.4z"/>
			<path class="st4" d="M454.2,90.64c1.13,1.24,2.85,2.17,4.66,2.17c1.69,0,2.88-1.04,2.88-2.48c0-2.54-3.67-2.85-6.32-4.4
				c-1.55-0.9-2.79-2.26-2.79-4.49c0-3.53,3.24-5.56,6.52-5.56c2,0,3.87,0.48,5.73,1.86l-1.98,2.82c-0.79-0.73-2.12-1.3-3.42-1.3
				c-1.44,0-3.05,0.62-3.05,2.14c0,3.19,9.11,2.2,9.11,8.86c0,3.5-3.13,5.93-6.69,5.93c-2.65,0-5.11-1.1-7.14-2.97L454.2,90.64z"/>
			<path class="st4" d="M469.45,90.64c1.13,1.24,2.85,2.17,4.66,2.17c1.69,0,2.88-1.04,2.88-2.48c0-2.54-3.67-2.85-6.32-4.4
				c-1.55-0.9-2.79-2.26-2.79-4.49c0-3.53,3.24-5.56,6.52-5.56c2,0,3.87,0.48,5.73,1.86l-1.98,2.82c-0.79-0.73-2.12-1.3-3.42-1.3
				c-1.44,0-3.05,0.62-3.05,2.14c0,3.19,9.11,2.2,9.11,8.86c0,3.5-3.13,5.93-6.69,5.93c-2.65,0-5.11-1.1-7.14-2.97L469.45,90.64z"/>
			<rect x="484.61" y="76.17" class="st4" width="3.81" height="19.75"/>
			<path class="st4" d="M502.4,92.82c3.72,0,6.49-3.05,6.49-6.77c0-3.73-2.77-6.78-6.49-6.78c-3.72,0-6.49,3.05-6.49,6.78
				C495.91,89.77,498.67,92.82,502.4,92.82 M502.4,75.88c6.1,0,10.3,4.54,10.3,10.16c0,5.62-4.2,10.16-10.3,10.16
				c-6.1,0-10.3-4.54-10.3-10.16C492.1,80.43,496.3,75.88,502.4,75.88"/>
			<polygon class="st4" points="516.38,76.17 519.06,76.17 530.07,89.03 530.07,76.17 533.87,76.17 533.87,95.92 531.19,95.92 
				520.19,83.05 520.19,95.92 516.38,95.92 			"/>
			<path class="st4" d="M543.99,88.16h5.02l-2.51-5.84L543.99,88.16z M536.71,95.92l8.47-19.75h2.68l8.47,19.75h-3.98l-1.86-4.38
				h-7.93l-1.86,4.38H536.71z"/>
			<polygon class="st4" points="570.3,76.17 570.3,79.55 565.08,79.55 565.08,95.92 561.27,95.92 561.27,79.55 556.05,79.55 
				556.05,76.17 			"/>
			<polygon class="st4" points="573.84,76.17 573.84,95.92 585.97,95.92 585.97,92.53 577.65,92.53 577.65,87.03 583.72,87.03 
				583.72,83.64 577.65,83.64 577.65,79.55 585.69,79.55 585.69,76.17 			"/>
		</g>
	</g>
</g>
<rect x="28.35" y="84.59" class="st5" width="262.2" height="14.62"/>
<path class="st4" d="M53.61,42.52v25.45c0,9.74-2.91,11.49-13.09,11.49c-10.08,0-12.17-2.38-12.17-12.51v-3.01h9.21v3.01
	c0,3.01,0.34,4.07,2.96,4.07c3.01,0,3.39-0.78,3.39-3.05V42.52H53.61z"/>
<path class="st4" d="M62.76,66.13V55.85c0-11.2,6.98-13.33,16.82-13.33c9.84,0,16.82,2.13,16.82,13.33v10.28
	c0,11.2-6.98,13.33-16.82,13.33C69.74,79.46,62.76,77.33,62.76,66.13z M86.42,65.06v-8.19c0-5.38-1.79-5.91-6.84-5.91
	c-5.04,0-6.69,0.53-6.84,5.91v8.19c0.14,5.43,1.79,5.96,6.84,5.96C84.62,71.03,86.42,70.49,86.42,65.06z"/>
<path class="st4" d="M105.13,42.52h18.71c8.39,0.15,12.51,1.94,12.51,11.01c0,6.06,0,9.6-6.88,11.2v0.39
	c3.97,0.14,6.55,2.33,6.55,6.45v7.89l-9.7,0v-5.66c0.1-2.72-1.07-4.56-3.98-4.56h-7.52v10.22h-9.7V42.52z M122.34,60.8
	c4.17,0,4.02-1.55,4.02-5.67c0-3.25-0.82-4.17-4.02-4.17h-7.52v9.84H122.34z"/>
<path class="st4" d="M155.41,79.46h-9.7V42.52h9.7V79.46z"/>
<path class="st4" d="M182.31,57.06c10.76,0.78,13.43,2.13,13.43,10.47c0,6.01,0.24,11.93-15.76,11.93
	c-9.26,0-15.42-0.19-15.42-12.12h9.31c0,3.78,1.36,4.17,6.11,4.17c4.56,0,6.06-0.29,6.06-3.35c0-3.15-0.53-3.1-5.09-3.39l-2.13-0.14
	c-8.97-0.63-14.21-0.58-14.21-11c0-10.42,5.87-11.1,15.37-11.1c7.95,0,14.74,0.14,14.74,10.18v1.5h-9.31c0-3.73-1.55-3.73-5.43-3.73
	c-5.24,0-5.67,1.07-5.67,3.1c0,2.91,1.41,3.01,3.98,3.2L182.31,57.06z"/>
<path class="st6" d="M215.13,79.46h-9.7V42.52h9.7V79.46z"/>
<path class="st6" d="M223.24,42.52h18.42c10.13,0,14.64,3.78,14.64,14.11v8.19c0,9.94-3.2,14.64-13.33,14.64h-19.73V42.52z
	 M232.94,71.02h8.48c3.59,0,4.9-2.37,4.9-6.21v-8.19c0-4.7-1.5-5.67-4.9-5.67h-8.48V71.02z"/>
<path class="st6" d="M273.67,57.4h15.51v6.74h-15.51v7.36h16.87v7.95h-26.57V42.52h26.57v7.95h-16.87V57.4z"/>
<g>
	<path class="st4" d="M35.15,86.72v1.78H32.8v8.76h-2.01V88.5h-2.35v-1.78H35.15z"/>
	<path class="st4" d="M46.34,97.26V86.72h2.01v4.2h2.85v-4.2h2.01v10.54H51.2v-4.55h-2.85v4.55H46.34z"/>
	<path class="st4" d="M65.03,97.26V86.72h5.52v1.78h-3.5v2.42h2.67v1.78h-2.67v2.77h3.65v1.78H65.03z"/>
	<path class="st4" d="M100.6,89.66c-0.34-0.99-0.77-1.42-1.47-1.42c-0.72,0-1.11,0.44-1.11,1.15c0,1.59,4.5,1.71,4.5,5.01
		c0,1.81-1.24,3.01-3.36,3.01c-1.63,0-2.9-0.89-3.44-2.96l1.99-0.42c0.23,1.27,0.96,1.72,1.56,1.72c0.7,0,1.24-0.47,1.24-1.26
		c0-1.99-4.5-2.01-4.5-4.96c0-1.81,1.08-2.95,3.17-2.95c1.8,0,2.89,1.07,3.24,2.55L100.6,89.66z"/>
	<path class="st4" d="M120.25,86.72v1.78h-2.35v8.76h-2.01V88.5h-2.35v-1.78H120.25z"/>
	<path class="st4" d="M131.33,97.26V86.72h5.52v1.78h-3.5v2.42h2.67v1.78h-2.67v2.77h3.65v1.78H131.33z"/>
	<path class="st4" d="M148.51,97.26V86.72h5.52v1.78h-3.5v2.42h2.67v1.78h-2.67v2.77h3.65v1.78H148.51z"/>
	<path class="st4" d="M165.69,97.26V86.72h2.01v8.76h3.24v1.78H165.69z"/>
	<path class="st4" d="M196,97.26V86.72h5.25v1.78h-3.24v2.42h2.54v1.78h-2.54v4.55H196z"/>
	<path class="st4" d="M214.49,86.72v7.37c0,1.01,0.44,1.53,1.42,1.53c0.98,0,1.43-0.53,1.43-1.53v-7.37h2.01v7.39
		c0,2.32-1.37,3.3-3.44,3.3c-2.07,0-3.43-0.98-3.43-3.3v-7.39H214.49z"/>
	<path class="st4" d="M237.27,86.72v1.78h-2.35v8.76h-2.01V88.5h-2.35v-1.78H237.27z"/>
	<path class="st4" d="M250.48,86.72v7.37c0,1.01,0.44,1.53,1.42,1.53c0.98,0,1.43-0.53,1.43-1.53v-7.37h2.01v7.39
		c0,2.32-1.37,3.3-3.44,3.3c-2.07,0-3.43-0.98-3.43-3.3v-7.39H250.48z"/>
	<path class="st4" d="M271.88,97.26l-1.75-4.29h-0.96v4.29h-2.01V86.72h2.92c2.42,0,3.58,1.17,3.58,3.15c0,1.31-0.47,2.26-1.59,2.69
		l1.98,4.7H271.88z M269.16,91.31h1.04c0.89,0,1.43-0.44,1.43-1.46c0-1.02-0.54-1.46-1.43-1.46h-1.04V91.31z"/>
	<path class="st4" d="M285.15,97.26V86.72h5.52v1.78h-3.5v2.42h2.67v1.78h-2.67v2.77h3.65v1.78H285.15z"/>
</g>
<line class="st7" x1="319.16" y1="28.35" x2="319.16" y2="113.39"/>
</svg>
