<svg xmlns="http://www.w3.org/2000/svg" width="82.163" height="32.213" viewBox="0 0 82.163 32.213"><defs><style>.a{fill:#fff;fill-rule:evenodd;}</style></defs><g transform="translate(-102.255 -9.306)"><g transform="translate(35 10)"><g transform="translate(64.342 6)"><path class="a" d="M53.4,1.8a.55.55,0,0,1,.3.5c-.1,1-.1,2-.2,3,0,.4-.4.6-.8.4a4.193,4.193,0,0,0-2.2-.5,2.973,2.973,0,0,0-2.7,2.6,9.721,9.721,0,0,0,.1,3.4,9.853,9.853,0,0,1,.2,1.7c0,.5.2.7.7.6,1-.1,2.1,0,3.1-.1.3,0,.5,0,.4.4a2.854,2.854,0,0,0,0,1.3c.1.4-.1.5-.4.5-1.1-.1-2.1-.1-3.2-.1-.4,0-.5.1-.5.5,0,4.7,0,9.4.1,14.1,0,.9.1,1.8.1,2.7,0,.2,0,.5-.3.4a12.156,12.156,0,0,0-3.3,0c-.4,0-.5-.1-.4-.4.2-2.6.3-5.2.3-7.7v-9c0-.4-.1-.6-.5-.5a13.4,13.4,0,0,1-2,.1c-.3,0-.5,0-.4-.4a3.788,3.788,0,0,0,0-1.5c-.1-.3,0-.4.3-.4h1.8c.8,0,.8,0,.9-.8a15.654,15.654,0,0,1,3.1-8.4,6.436,6.436,0,0,1,3.6-2.4c.1,0,.1-.1.2-.1h1.7Zm16.8,0h0a7.742,7.742,0,0,0-4.8,4,16.925,16.925,0,0,0-2,7.2c0,.4-.2.5-.5.5h-2c-.2,0-.4-.1-.3.3a4.061,4.061,0,0,1,0,1.9c.8,0,1.6-.1,2.4-.1.4,0,.5.1.5.5,0,2.3-.1,4.5-.1,6.8q0,4.95-.3,9.9c0,.4.1.5.4.4a12.156,12.156,0,0,1,3.3,0c.2.2.2,0,.2-.2,0-1.3-.1-2.5-.1-3.8,0-4.4,0-8.7-.1-13.1,0-.4.2-.5.5-.5,1.1.1,2.2.1,3.3.1.3,0,.4-.1.3-.4a3.3,3.3,0,0,1,0-1.4c.1-.3,0-.4-.3-.4H68.3c-.5,0-1.1.2-1.4-.1-.4-.2-.2-.9-.3-1.4a14.825,14.825,0,0,1-.2-4.2,3.091,3.091,0,0,1,2.4-2.7,5.073,5.073,0,0,1,2.4.4c.5.5.8.3.9-.3a24.519,24.519,0,0,1,.2-2.7.908.908,0,0,0-.3-.7ZM40.4,31.2a.31.31,0,0,1-.2.1c-1.1.5-1.8.1-2-1a1.486,1.486,0,0,1-.2-.9c-.1-3.4.2-6.9.1-10.3a5.793,5.793,0,0,0-4.2-5.7,9.559,9.559,0,0,0-8.5,1.5c-.6.4-1,.8-.8,1.6a4.052,4.052,0,0,1,0,1.1c0,.2-.1.5.2.5s.6.1.8-.2a5.417,5.417,0,0,1,4.3-2.5A3.961,3.961,0,0,1,34,17.5a7.1,7.1,0,0,1,.5,2.9c0,.9-.2,1.1-1.1,1.4a19.024,19.024,0,0,1-3.6.8,12.071,12.071,0,0,0-4.1,1.2c-3.6,1.8-3.8,7.1-.6,9.1,2.2,1.4,4.5,1.2,6.8.3a9.507,9.507,0,0,0,2.7-1.9,2.818,2.818,0,0,0,3,2.1,6.6,6.6,0,0,0,1.4-.1c1.4-.2,1.5-.3,1.4-1.8v-.3m-6-7.9c0,1.5-.1,3,0,4.4A3.067,3.067,0,0,1,33,30.4a4.494,4.494,0,0,1-3.5,1.1c-1.9-.3-3-2.1-2.7-4.2.2-1.6,1.3-2.4,2.7-3a8.331,8.331,0,0,1,1.5-.4c1.2-.2,2.3-.4,3.4-.6M7,24a14.442,14.442,0,0,1,.9-5.8,5.969,5.969,0,0,1,8-2.9,6.358,6.358,0,0,1,2.4,2.2c.2.3.4.3.7.3.4,0,.3-.3.4-.5.2-.5.3-1.1.5-1.6.4-1.2.4-1.2-.7-1.8h-.1a12.753,12.753,0,0,0-9-.7A8.973,8.973,0,0,0,3.8,19,11.531,11.531,0,0,0,3,25c.4,3.4,1.9,6.2,5.1,7.7a10.624,10.624,0,0,0,11.1-1,1.213,1.213,0,0,0,.7-1.2,5.019,5.019,0,0,1,.2-1.2c.1-.3,0-.4-.3-.6s-.4.1-.5.2a8.143,8.143,0,0,1-5,2.6,6.037,6.037,0,0,1-6.7-3.8A14.752,14.752,0,0,1,7,24m71.3-7.3a28.318,28.318,0,0,1,.2-3c0-.2.2-.5-.3-.4a6.92,6.92,0,0,1-3.2,0c-.2-.1-.4,0-.3.3,0,.4.1.8.1,1.2.1,3.3.1,6.6.1,10,0,2.7,0,5.4-.2,8.1,0,.3.1.4.4.4a11.3,11.3,0,0,1,2.6,0c.8.1.8.1.8-.8v-.6c-.1-3.1-.1-6.1-.1-9.2a12.1,12.1,0,0,1,.1-1.9,6.071,6.071,0,0,1,1.3-3.2,3.24,3.24,0,0,1,4-.7c.2.1.2.4.6.2a.755.755,0,0,0,.4-.7,7.443,7.443,0,0,1,.2-2.6c.2-.6,0-.7-.5-.8a4.444,4.444,0,0,0-4.2,1.3,9.47,9.47,0,0,0-2,2.4M59.4,23.4a3.2,3.2,0,1,0-6.4,0,3.2,3.2,0,0,0,6.4,0" transform="translate(0 -8.394)"/></g></g></g></svg>